G04*
G04 #@! TF.GenerationSoftware,Altium Limited,Altium Designer,19.0.4 (130)*
G04*
G04 Layer_Color=8388736*
%FSLAX24Y24*%
%MOIN*%
G70*
G01*
G75*
%ADD15C,0.0060*%
%ADD34R,0.2250X0.4250*%
%ADD35R,0.0296X0.0355*%
%ADD36R,0.0237X0.0355*%
%ADD37R,0.0512X0.0827*%
G04:AMPARAMS|DCode=38|XSize=26mil|YSize=26mil|CornerRadius=8mil|HoleSize=0mil|Usage=FLASHONLY|Rotation=270.000|XOffset=0mil|YOffset=0mil|HoleType=Round|Shape=RoundedRectangle|*
%AMROUNDEDRECTD38*
21,1,0.0260,0.0100,0,0,270.0*
21,1,0.0100,0.0260,0,0,270.0*
1,1,0.0160,-0.0050,-0.0050*
1,1,0.0160,-0.0050,0.0050*
1,1,0.0160,0.0050,0.0050*
1,1,0.0160,0.0050,-0.0050*
%
%ADD38ROUNDEDRECTD38*%
G04:AMPARAMS|DCode=39|XSize=26mil|YSize=26mil|CornerRadius=8mil|HoleSize=0mil|Usage=FLASHONLY|Rotation=180.000|XOffset=0mil|YOffset=0mil|HoleType=Round|Shape=RoundedRectangle|*
%AMROUNDEDRECTD39*
21,1,0.0260,0.0100,0,0,180.0*
21,1,0.0100,0.0260,0,0,180.0*
1,1,0.0160,-0.0050,0.0050*
1,1,0.0160,0.0050,0.0050*
1,1,0.0160,0.0050,-0.0050*
1,1,0.0160,-0.0050,-0.0050*
%
%ADD39ROUNDEDRECTD39*%
G04:AMPARAMS|DCode=40|XSize=166mil|YSize=166mil|CornerRadius=19mil|HoleSize=0mil|Usage=FLASHONLY|Rotation=270.000|XOffset=0mil|YOffset=0mil|HoleType=Round|Shape=RoundedRectangle|*
%AMROUNDEDRECTD40*
21,1,0.1660,0.1280,0,0,270.0*
21,1,0.1280,0.1660,0,0,270.0*
1,1,0.0380,-0.0640,-0.0640*
1,1,0.0380,-0.0640,0.0640*
1,1,0.0380,0.0640,0.0640*
1,1,0.0380,0.0640,-0.0640*
%
%ADD40ROUNDEDRECTD40*%
G04:AMPARAMS|DCode=41|XSize=32.6mil|YSize=15.8mil|CornerRadius=5.5mil|HoleSize=0mil|Usage=FLASHONLY|Rotation=270.000|XOffset=0mil|YOffset=0mil|HoleType=Round|Shape=RoundedRectangle|*
%AMROUNDEDRECTD41*
21,1,0.0326,0.0049,0,0,270.0*
21,1,0.0217,0.0158,0,0,270.0*
1,1,0.0109,-0.0025,-0.0108*
1,1,0.0109,-0.0025,0.0108*
1,1,0.0109,0.0025,0.0108*
1,1,0.0109,0.0025,-0.0108*
%
%ADD41ROUNDEDRECTD41*%
G04:AMPARAMS|DCode=42|XSize=32.6mil|YSize=15.8mil|CornerRadius=5.5mil|HoleSize=0mil|Usage=FLASHONLY|Rotation=0.000|XOffset=0mil|YOffset=0mil|HoleType=Round|Shape=RoundedRectangle|*
%AMROUNDEDRECTD42*
21,1,0.0326,0.0049,0,0,0.0*
21,1,0.0217,0.0158,0,0,0.0*
1,1,0.0109,0.0108,-0.0025*
1,1,0.0109,-0.0108,-0.0025*
1,1,0.0109,-0.0108,0.0025*
1,1,0.0109,0.0108,0.0025*
%
%ADD42ROUNDEDRECTD42*%
G04:AMPARAMS|DCode=43|XSize=43.4mil|YSize=45.4mil|CornerRadius=12.4mil|HoleSize=0mil|Usage=FLASHONLY|Rotation=0.000|XOffset=0mil|YOffset=0mil|HoleType=Round|Shape=RoundedRectangle|*
%AMROUNDEDRECTD43*
21,1,0.0434,0.0207,0,0,0.0*
21,1,0.0187,0.0454,0,0,0.0*
1,1,0.0247,0.0094,-0.0103*
1,1,0.0247,-0.0094,-0.0103*
1,1,0.0247,-0.0094,0.0103*
1,1,0.0247,0.0094,0.0103*
%
%ADD43ROUNDEDRECTD43*%
G04:AMPARAMS|DCode=44|XSize=21.7mil|YSize=143.8mil|CornerRadius=6.9mil|HoleSize=0mil|Usage=FLASHONLY|Rotation=270.000|XOffset=0mil|YOffset=0mil|HoleType=Round|Shape=RoundedRectangle|*
%AMROUNDEDRECTD44*
21,1,0.0217,0.1299,0,0,270.0*
21,1,0.0079,0.1438,0,0,270.0*
1,1,0.0139,-0.0650,-0.0039*
1,1,0.0139,-0.0650,0.0039*
1,1,0.0139,0.0650,0.0039*
1,1,0.0139,0.0650,-0.0039*
%
%ADD44ROUNDEDRECTD44*%
%ADD45R,0.1162X0.1123*%
G04:AMPARAMS|DCode=46|XSize=22mil|YSize=48mil|CornerRadius=8mil|HoleSize=0mil|Usage=FLASHONLY|Rotation=90.000|XOffset=0mil|YOffset=0mil|HoleType=Round|Shape=RoundedRectangle|*
%AMROUNDEDRECTD46*
21,1,0.0220,0.0320,0,0,90.0*
21,1,0.0060,0.0480,0,0,90.0*
1,1,0.0160,0.0160,0.0030*
1,1,0.0160,0.0160,-0.0030*
1,1,0.0160,-0.0160,-0.0030*
1,1,0.0160,-0.0160,0.0030*
%
%ADD46ROUNDEDRECTD46*%
G04:AMPARAMS|DCode=47|XSize=22mil|YSize=48mil|CornerRadius=8mil|HoleSize=0mil|Usage=FLASHONLY|Rotation=180.000|XOffset=0mil|YOffset=0mil|HoleType=Round|Shape=RoundedRectangle|*
%AMROUNDEDRECTD47*
21,1,0.0220,0.0320,0,0,180.0*
21,1,0.0060,0.0480,0,0,180.0*
1,1,0.0160,-0.0030,0.0160*
1,1,0.0160,0.0030,0.0160*
1,1,0.0160,0.0030,-0.0160*
1,1,0.0160,-0.0030,-0.0160*
%
%ADD47ROUNDEDRECTD47*%
G04:AMPARAMS|DCode=48|XSize=29.6mil|YSize=41mil|CornerRadius=8.9mil|HoleSize=0mil|Usage=FLASHONLY|Rotation=90.000|XOffset=0mil|YOffset=0mil|HoleType=Round|Shape=RoundedRectangle|*
%AMROUNDEDRECTD48*
21,1,0.0296,0.0232,0,0,90.0*
21,1,0.0118,0.0410,0,0,90.0*
1,1,0.0178,0.0116,0.0059*
1,1,0.0178,0.0116,-0.0059*
1,1,0.0178,-0.0116,-0.0059*
1,1,0.0178,-0.0116,0.0059*
%
%ADD48ROUNDEDRECTD48*%
G04:AMPARAMS|DCode=49|XSize=37.5mil|YSize=76.9mil|CornerRadius=10.9mil|HoleSize=0mil|Usage=FLASHONLY|Rotation=270.000|XOffset=0mil|YOffset=0mil|HoleType=Round|Shape=RoundedRectangle|*
%AMROUNDEDRECTD49*
21,1,0.0375,0.0551,0,0,270.0*
21,1,0.0157,0.0769,0,0,270.0*
1,1,0.0217,-0.0276,-0.0079*
1,1,0.0217,-0.0276,0.0079*
1,1,0.0217,0.0276,0.0079*
1,1,0.0217,0.0276,-0.0079*
%
%ADD49ROUNDEDRECTD49*%
G04:AMPARAMS|DCode=50|XSize=65.1mil|YSize=17.8mil|CornerRadius=6mil|HoleSize=0mil|Usage=FLASHONLY|Rotation=0.000|XOffset=0mil|YOffset=0mil|HoleType=Round|Shape=RoundedRectangle|*
%AMROUNDEDRECTD50*
21,1,0.0651,0.0059,0,0,0.0*
21,1,0.0531,0.0178,0,0,0.0*
1,1,0.0119,0.0266,-0.0030*
1,1,0.0119,-0.0266,-0.0030*
1,1,0.0119,-0.0266,0.0030*
1,1,0.0119,0.0266,0.0030*
%
%ADD50ROUNDEDRECTD50*%
G04:AMPARAMS|DCode=51|XSize=56mil|YSize=36mil|CornerRadius=10.5mil|HoleSize=0mil|Usage=FLASHONLY|Rotation=180.000|XOffset=0mil|YOffset=0mil|HoleType=Round|Shape=RoundedRectangle|*
%AMROUNDEDRECTD51*
21,1,0.0560,0.0150,0,0,180.0*
21,1,0.0350,0.0360,0,0,180.0*
1,1,0.0210,-0.0175,0.0075*
1,1,0.0210,0.0175,0.0075*
1,1,0.0210,0.0175,-0.0075*
1,1,0.0210,-0.0175,-0.0075*
%
%ADD51ROUNDEDRECTD51*%
%ADD52C,0.0560*%
%ADD53C,0.1241*%
%ADD54O,0.0887X0.0454*%
%ADD55O,0.0690X0.0454*%
%ADD56C,0.0316*%
%ADD57C,0.0300*%
%ADD58C,0.0220*%
G36*
X1512Y2660D02*
X1597Y2534D01*
X1546D01*
X1469Y2650D01*
Y2534D01*
X1425D01*
Y2766D01*
X1469D01*
Y2665D01*
X1544Y2766D01*
X1591D01*
X1512Y2660D01*
D02*
G37*
G36*
X1920Y2623D02*
Y2534D01*
X1875D01*
Y2622D01*
X1800Y2766D01*
X1847D01*
X1898Y2659D01*
X1950Y2766D01*
X1995D01*
X1920Y2623D01*
D02*
G37*
G36*
X1770Y2731D02*
X1678D01*
Y2669D01*
X1759D01*
Y2634D01*
X1678D01*
Y2569D01*
X1777D01*
Y2534D01*
X1633D01*
Y2766D01*
X1775D01*
X1770Y2731D01*
D02*
G37*
G36*
X7136Y2770D02*
X7139D01*
X7143Y2769D01*
X7148Y2769D01*
X7153Y2767D01*
X7159Y2766D01*
X7165Y2765D01*
X7171Y2763D01*
X7178Y2760D01*
X7184Y2757D01*
X7191Y2754D01*
X7198Y2750D01*
X7204Y2745D01*
X7210Y2740D01*
X7187Y2714D01*
X7187Y2715D01*
X7186Y2715D01*
X7185Y2716D01*
X7183Y2717D01*
X7181Y2719D01*
X7178Y2720D01*
X7175Y2722D01*
X7171Y2724D01*
X7163Y2728D01*
X7154Y2731D01*
X7144Y2733D01*
X7139Y2734D01*
X7134Y2734D01*
X7131D01*
X7128Y2734D01*
X7124Y2733D01*
X7120Y2732D01*
X7115Y2731D01*
X7110Y2729D01*
X7106Y2727D01*
X7106Y2727D01*
X7105Y2726D01*
X7103Y2725D01*
X7102Y2722D01*
X7100Y2720D01*
X7098Y2716D01*
X7097Y2713D01*
X7096Y2708D01*
Y2708D01*
Y2707D01*
X7097Y2706D01*
Y2704D01*
X7098Y2699D01*
X7099Y2697D01*
X7100Y2695D01*
X7101Y2695D01*
X7101Y2694D01*
X7102Y2693D01*
X7104Y2692D01*
X7106Y2690D01*
X7109Y2688D01*
X7112Y2686D01*
X7116Y2685D01*
X7116Y2684D01*
X7117Y2684D01*
X7120Y2683D01*
X7123Y2681D01*
X7128Y2680D01*
X7133Y2678D01*
X7140Y2676D01*
X7147Y2673D01*
X7147D01*
X7148Y2673D01*
X7150Y2672D01*
X7152Y2672D01*
X7155Y2671D01*
X7158Y2669D01*
X7166Y2666D01*
X7174Y2663D01*
X7182Y2658D01*
X7190Y2653D01*
X7198Y2647D01*
X7198D01*
X7198Y2646D01*
X7201Y2644D01*
X7204Y2641D01*
X7207Y2635D01*
X7210Y2629D01*
X7213Y2621D01*
X7215Y2612D01*
X7215Y2607D01*
X7216Y2601D01*
Y2601D01*
Y2600D01*
Y2599D01*
Y2597D01*
X7215Y2593D01*
X7214Y2588D01*
X7213Y2582D01*
X7211Y2576D01*
X7209Y2570D01*
X7205Y2563D01*
X7205Y2562D01*
X7203Y2561D01*
X7201Y2558D01*
X7197Y2554D01*
X7193Y2550D01*
X7187Y2546D01*
X7181Y2542D01*
X7174Y2538D01*
X7174D01*
X7173Y2538D01*
X7172Y2538D01*
X7170Y2537D01*
X7168Y2537D01*
X7166Y2536D01*
X7160Y2534D01*
X7153Y2533D01*
X7145Y2531D01*
X7136Y2530D01*
X7126Y2530D01*
X7124D01*
X7121Y2530D01*
X7117D01*
X7113Y2531D01*
X7108Y2532D01*
X7102Y2533D01*
X7096Y2534D01*
X7089Y2536D01*
X7082Y2538D01*
X7075Y2541D01*
X7067Y2544D01*
X7060Y2547D01*
X7053Y2552D01*
X7046Y2557D01*
X7040Y2562D01*
X7064Y2590D01*
X7065Y2589D01*
X7065Y2588D01*
X7067Y2587D01*
X7069Y2586D01*
X7072Y2584D01*
X7075Y2582D01*
X7078Y2580D01*
X7082Y2578D01*
X7086Y2575D01*
X7091Y2573D01*
X7102Y2569D01*
X7107Y2568D01*
X7114Y2567D01*
X7120Y2566D01*
X7126Y2565D01*
X7130D01*
X7133Y2566D01*
X7137Y2567D01*
X7142Y2568D01*
X7147Y2569D01*
X7153Y2571D01*
X7157Y2574D01*
X7158Y2574D01*
X7159Y2575D01*
X7161Y2578D01*
X7164Y2580D01*
X7166Y2584D01*
X7168Y2588D01*
X7169Y2593D01*
X7170Y2599D01*
Y2599D01*
Y2600D01*
Y2602D01*
X7169Y2604D01*
X7168Y2609D01*
X7166Y2614D01*
Y2614D01*
X7165Y2615D01*
X7164Y2616D01*
X7163Y2618D01*
X7161Y2619D01*
X7159Y2621D01*
X7157Y2624D01*
X7153Y2625D01*
X7153Y2626D01*
X7151Y2626D01*
X7150Y2627D01*
X7146Y2629D01*
X7143Y2630D01*
X7138Y2632D01*
X7132Y2634D01*
X7126Y2636D01*
X7126D01*
X7124Y2636D01*
X7122Y2637D01*
X7120Y2638D01*
X7117Y2639D01*
X7113Y2640D01*
X7109Y2642D01*
X7104Y2644D01*
X7095Y2648D01*
X7086Y2652D01*
X7077Y2658D01*
X7073Y2660D01*
X7069Y2663D01*
X7069Y2664D01*
X7069Y2664D01*
X7066Y2666D01*
X7063Y2670D01*
X7060Y2675D01*
X7057Y2681D01*
X7054Y2688D01*
X7052Y2696D01*
X7051Y2701D01*
X7051Y2706D01*
Y2706D01*
Y2707D01*
Y2708D01*
Y2709D01*
X7052Y2713D01*
X7052Y2717D01*
X7053Y2722D01*
X7055Y2728D01*
X7058Y2734D01*
X7061Y2739D01*
X7062Y2740D01*
X7063Y2742D01*
X7066Y2745D01*
X7069Y2748D01*
X7073Y2752D01*
X7078Y2755D01*
X7084Y2759D01*
X7090Y2762D01*
X7090D01*
X7091Y2762D01*
X7092Y2763D01*
X7093Y2763D01*
X7097Y2765D01*
X7102Y2766D01*
X7108Y2767D01*
X7115Y2769D01*
X7123Y2770D01*
X7131Y2770D01*
X7134D01*
X7136Y2770D01*
D02*
G37*
G36*
X7418Y2729D02*
X7353D01*
Y2534D01*
X7309D01*
Y2729D01*
X7241D01*
Y2766D01*
X7422D01*
X7418Y2729D01*
D02*
G37*
G36*
X6929Y2765D02*
X6932D01*
X6938Y2765D01*
X6945Y2763D01*
X6952Y2762D01*
X6961Y2760D01*
X6969Y2757D01*
X6978Y2753D01*
X6986Y2749D01*
X6994Y2743D01*
X7001Y2737D01*
X7006Y2729D01*
X7009Y2725D01*
X7011Y2720D01*
X7013Y2715D01*
X7014Y2709D01*
X7015Y2703D01*
X7015Y2697D01*
Y2697D01*
Y2696D01*
Y2695D01*
X7015Y2693D01*
Y2691D01*
X7014Y2688D01*
X7013Y2683D01*
X7011Y2676D01*
X7009Y2669D01*
X7005Y2662D01*
X7000Y2656D01*
X6999Y2655D01*
X6998Y2653D01*
X6994Y2650D01*
X6990Y2647D01*
X6985Y2643D01*
X6978Y2639D01*
X6971Y2636D01*
X6964Y2633D01*
X7028Y2534D01*
X6978D01*
X6921Y2627D01*
X6902D01*
Y2534D01*
X6858D01*
Y2766D01*
X6928D01*
X6929Y2765D01*
D02*
G37*
%LPC*%
G36*
X1469Y2665D02*
X1464Y2658D01*
X1469Y2650D01*
Y2665D01*
D02*
G37*
G36*
X6926Y2731D02*
X6902D01*
Y2661D01*
X6930D01*
X6934Y2661D01*
X6939Y2662D01*
X6944Y2663D01*
X6949Y2664D01*
X6954Y2666D01*
X6958Y2669D01*
X6958Y2669D01*
X6960Y2671D01*
X6961Y2673D01*
X6964Y2676D01*
X6965Y2680D01*
X6967Y2685D01*
X6968Y2691D01*
X6969Y2697D01*
Y2698D01*
Y2698D01*
Y2700D01*
X6968Y2703D01*
X6968Y2707D01*
X6966Y2712D01*
X6964Y2716D01*
X6962Y2720D01*
X6958Y2723D01*
X6958Y2723D01*
X6956Y2724D01*
X6954Y2726D01*
X6951Y2727D01*
X6946Y2729D01*
X6941Y2730D01*
X6934Y2731D01*
X6926Y2731D01*
D02*
G37*
%LPD*%
D15*
X6900Y-3600D02*
X7370Y-3130D01*
D34*
X20025Y-25D02*
D03*
D35*
X3825Y-8879D02*
D03*
Y-8170D02*
D03*
X4770Y-8879D02*
D03*
Y-8170D02*
D03*
X4880Y-5480D02*
D03*
Y-6189D02*
D03*
X3935Y-5480D02*
D03*
Y-6189D02*
D03*
X17852Y-6216D02*
D03*
Y-6924D02*
D03*
X16908Y-6216D02*
D03*
Y-6924D02*
D03*
X17942Y-8016D02*
D03*
Y-8724D02*
D03*
X16998Y-8016D02*
D03*
Y-8724D02*
D03*
D36*
X4140Y-8879D02*
D03*
Y-8170D02*
D03*
X4455Y-8879D02*
D03*
Y-8170D02*
D03*
X4565Y-5480D02*
D03*
Y-6189D02*
D03*
X4250Y-5480D02*
D03*
Y-6189D02*
D03*
X17538Y-6216D02*
D03*
Y-6924D02*
D03*
X17223Y-6216D02*
D03*
Y-6924D02*
D03*
X17628Y-8016D02*
D03*
Y-8724D02*
D03*
X17313Y-8016D02*
D03*
Y-8724D02*
D03*
D37*
X9650Y-5608D02*
D03*
X8650D02*
D03*
X7650D02*
D03*
Y-9112D02*
D03*
X8650D02*
D03*
X9650D02*
D03*
X6650Y-5608D02*
D03*
Y-9112D02*
D03*
X15090Y-5488D02*
D03*
X14090D02*
D03*
X13090D02*
D03*
Y-8992D02*
D03*
X14090D02*
D03*
X15090D02*
D03*
X12090Y-5488D02*
D03*
Y-8992D02*
D03*
D38*
X13800Y-2150D02*
D03*
X13400D02*
D03*
X12050Y-1750D02*
D03*
X12450D02*
D03*
Y-2150D02*
D03*
X12050D02*
D03*
X5950Y500D02*
D03*
X6350D02*
D03*
X13400Y-1700D02*
D03*
X13800D02*
D03*
X15280Y1539D02*
D03*
X15680D02*
D03*
Y1189D02*
D03*
X15280D02*
D03*
X4150Y-250D02*
D03*
X3750D02*
D03*
X4150Y150D02*
D03*
X3750D02*
D03*
X7450Y800D02*
D03*
X7850D02*
D03*
X5500Y2040D02*
D03*
X5900D02*
D03*
X5100D02*
D03*
X4700D02*
D03*
X5500Y2440D02*
D03*
X5900D02*
D03*
X5100D02*
D03*
X4700D02*
D03*
X7450Y-950D02*
D03*
X7850D02*
D03*
X7450Y-1300D02*
D03*
X7850D02*
D03*
X7450Y-600D02*
D03*
X7850D02*
D03*
X7450Y100D02*
D03*
X7850D02*
D03*
X7450Y450D02*
D03*
X7850D02*
D03*
X7450Y-250D02*
D03*
X7850D02*
D03*
X7450Y1200D02*
D03*
X7850D02*
D03*
D39*
X6000Y1000D02*
D03*
Y1400D02*
D03*
X6450D02*
D03*
Y1000D02*
D03*
X3700Y-1200D02*
D03*
Y-800D02*
D03*
X12900Y-1800D02*
D03*
Y-2200D02*
D03*
X6600Y-1300D02*
D03*
Y-900D02*
D03*
X6300Y2050D02*
D03*
Y2450D02*
D03*
D40*
X16150Y-750D02*
D03*
D41*
X17233Y574D02*
D03*
X17036D02*
D03*
X16839D02*
D03*
X16642D02*
D03*
X16445D02*
D03*
X16248D02*
D03*
X16052D02*
D03*
X15855D02*
D03*
X15658D02*
D03*
X15461D02*
D03*
X15264D02*
D03*
X15067D02*
D03*
Y-2074D02*
D03*
X15264D02*
D03*
X15461D02*
D03*
X15658D02*
D03*
X15855D02*
D03*
X16052D02*
D03*
X16248D02*
D03*
X16445D02*
D03*
X16642D02*
D03*
X16839D02*
D03*
X17036D02*
D03*
X17233D02*
D03*
D42*
X14826Y333D02*
D03*
Y136D02*
D03*
Y-61D02*
D03*
Y-258D02*
D03*
Y-455D02*
D03*
Y-652D02*
D03*
Y-848D02*
D03*
Y-1045D02*
D03*
Y-1242D02*
D03*
Y-1439D02*
D03*
Y-1636D02*
D03*
Y-1833D02*
D03*
X17474D02*
D03*
Y-1636D02*
D03*
Y-1439D02*
D03*
Y-1242D02*
D03*
Y-1045D02*
D03*
Y-848D02*
D03*
Y-652D02*
D03*
Y-455D02*
D03*
Y-258D02*
D03*
Y-61D02*
D03*
Y136D02*
D03*
Y333D02*
D03*
D43*
X12900Y-357D02*
D03*
X13274Y-1243D02*
D03*
X12526D02*
D03*
X11550Y-357D02*
D03*
X11924Y-1243D02*
D03*
X11176D02*
D03*
D44*
X9900Y827D02*
D03*
Y0D02*
D03*
Y-827D02*
D03*
Y-1654D02*
D03*
Y1654D02*
D03*
Y-1102D02*
D03*
Y-1378D02*
D03*
Y-276D02*
D03*
Y-551D02*
D03*
Y551D02*
D03*
Y276D02*
D03*
Y1378D02*
D03*
Y1102D02*
D03*
D45*
X5100Y-1500D02*
D03*
D46*
X6015Y-909D02*
D03*
Y-1106D02*
D03*
Y-1303D02*
D03*
Y-1500D02*
D03*
Y-1697D02*
D03*
Y-1894D02*
D03*
Y-2091D02*
D03*
X4185D02*
D03*
Y-1894D02*
D03*
Y-1697D02*
D03*
Y-1500D02*
D03*
Y-1303D02*
D03*
Y-1106D02*
D03*
Y-909D02*
D03*
D47*
X5691Y-2415D02*
D03*
X5494D02*
D03*
X5297D02*
D03*
X5100D02*
D03*
X4903D02*
D03*
X4706D02*
D03*
X4509D02*
D03*
Y-585D02*
D03*
X4706D02*
D03*
X4903D02*
D03*
X5100D02*
D03*
X5297D02*
D03*
X5494D02*
D03*
X5691D02*
D03*
D48*
X4259Y726D02*
D03*
Y1100D02*
D03*
Y1474D02*
D03*
X5399D02*
D03*
Y726D02*
D03*
D49*
X19850Y-1009D02*
D03*
Y1000D02*
D03*
D50*
X3042Y1319D02*
D03*
Y1201D02*
D03*
Y1004D02*
D03*
Y886D02*
D03*
Y689D02*
D03*
Y492D02*
D03*
Y295D02*
D03*
Y98D02*
D03*
Y-98D02*
D03*
Y-295D02*
D03*
Y-492D02*
D03*
Y-689D02*
D03*
Y-886D02*
D03*
Y-1004D02*
D03*
Y-1201D02*
D03*
Y-1319D02*
D03*
D51*
X4850Y3280D02*
D03*
X6550D02*
D03*
X4850Y3920D02*
D03*
X6550D02*
D03*
X2250Y3280D02*
D03*
X3950D02*
D03*
X2250Y3920D02*
D03*
X3950D02*
D03*
D52*
X6900Y-3600D02*
D03*
X10900Y3600D02*
D03*
X9900D02*
D03*
X15900D02*
D03*
X14900D02*
D03*
X16900D02*
D03*
X18900D02*
D03*
X17900D02*
D03*
X13900D02*
D03*
X11900D02*
D03*
X12900D02*
D03*
X7900D02*
D03*
X8900D02*
D03*
X10900Y-3600D02*
D03*
X9900D02*
D03*
X15900D02*
D03*
X14900D02*
D03*
X16900D02*
D03*
X18900D02*
D03*
X17900D02*
D03*
X13900D02*
D03*
X11900D02*
D03*
X12900D02*
D03*
X7900D02*
D03*
X8900D02*
D03*
X5900D02*
D03*
X4900D02*
D03*
X2900D02*
D03*
X3900D02*
D03*
X1900D02*
D03*
D53*
X750Y3550D02*
D03*
X790Y-9930D02*
D03*
X19960Y-9910D02*
D03*
X20050Y3550D02*
D03*
D54*
X2633Y1703D02*
D03*
Y-1703D02*
D03*
D55*
X1058Y1703D02*
D03*
Y-1703D02*
D03*
D56*
X2436Y-1138D02*
D03*
Y1138D02*
D03*
D57*
X4440Y-6940D02*
D03*
X17538Y-7520D02*
D03*
D58*
X4250Y-5849D02*
D03*
X16900Y-5398D02*
D03*
X4801Y-5209D02*
D03*
X4216Y-5034D02*
D03*
M02*
