G04*
G04 #@! TF.GenerationSoftware,Altium Limited,Altium Designer,19.0.4 (130)*
G04*
G04 Layer_Color=16711935*
%FSLAX24Y24*%
%MOIN*%
G70*
G01*
G75*
%ADD12C,0.0100*%
%ADD74C,0.0000*%
D12*
X700Y4300D02*
G03*
X0Y3600I0J-700D01*
G01*
X20800D02*
G03*
X20100Y4300I-700J0D01*
G01*
X20190Y-10760D02*
X20800Y-10150D01*
X0Y-3600D02*
Y3600D01*
X20800Y-10150D02*
X20800Y3600D01*
X700Y4300D02*
X20100D01*
D74*
X4115Y-515D02*
X6085D01*
Y-2485D02*
Y-515D01*
X4115Y-2485D02*
X6085D01*
X4115D02*
Y-515D01*
X5631Y-2485D02*
X5751D01*
X5631D02*
X5751D01*
X5434D02*
X5554D01*
X5434D02*
X5554D01*
X5237D02*
X5357D01*
X5237D02*
X5357D01*
X5040D02*
X5160D01*
X5040D02*
X5160D01*
X4843D02*
X4963D01*
X4843D02*
X4963D01*
X4646D02*
X4766D01*
X4646D02*
X4766D01*
X4449D02*
X4569D01*
X4449D02*
X4569D01*
X4115Y-2151D02*
Y-2031D01*
Y-2151D02*
Y-2031D01*
Y-1954D02*
Y-1834D01*
Y-1954D02*
Y-1834D01*
Y-1757D02*
Y-1637D01*
Y-1757D02*
Y-1637D01*
Y-1560D02*
Y-1440D01*
Y-1560D02*
Y-1440D01*
Y-1363D02*
Y-1243D01*
Y-1363D02*
Y-1243D01*
Y-1166D02*
Y-1046D01*
Y-1166D02*
Y-1046D01*
Y-969D02*
Y-849D01*
Y-969D02*
Y-849D01*
X4449Y-515D02*
X4569D01*
X4449D02*
X4569D01*
X4646D02*
X4766D01*
X4646D02*
X4766D01*
X4843D02*
X4963D01*
X4843D02*
X4963D01*
X5040D02*
X5160D01*
X5040D02*
X5160D01*
X5237D02*
X5357D01*
X5237D02*
X5357D01*
X5434D02*
X5554D01*
X5434D02*
X5554D01*
X5631D02*
X5751D01*
X5631D02*
X5751D01*
X6085Y-969D02*
Y-849D01*
Y-969D02*
Y-849D01*
Y-1166D02*
Y-1046D01*
Y-1166D02*
Y-1046D01*
Y-1363D02*
Y-1243D01*
Y-1363D02*
Y-1243D01*
Y-1560D02*
Y-1440D01*
Y-1560D02*
Y-1440D01*
Y-1757D02*
Y-1637D01*
Y-1757D02*
Y-1637D01*
Y-1954D02*
Y-1834D01*
Y-1954D02*
Y-1834D01*
Y-2151D02*
Y-2031D01*
Y-2151D02*
Y-2031D01*
M02*
