G04*
G04 #@! TF.GenerationSoftware,Altium Limited,Altium Designer,19.0.4 (130)*
G04*
G04 Layer_Color=65535*
%FSLAX24Y24*%
%MOIN*%
G70*
G01*
G75*
%ADD10C,0.0098*%
%ADD11C,0.0079*%
%ADD12C,0.0100*%
%ADD13C,0.0010*%
%ADD14C,0.0039*%
%ADD15C,0.0060*%
%ADD16C,0.0080*%
G36*
X4965Y2500D02*
X4835D01*
Y2535D01*
X4965D01*
Y2500D01*
D02*
G37*
G36*
Y2345D02*
X4835D01*
X4835Y2380D01*
X4965D01*
X4965Y2345D01*
D02*
G37*
G36*
X5685Y2465D02*
X5755D01*
Y2415D01*
X5685D01*
Y2335D01*
X5645D01*
Y2545D01*
X5685D01*
Y2465D01*
D02*
G37*
G36*
X6395Y2185D02*
X6360D01*
Y2315D01*
X6395D01*
Y2185D01*
D02*
G37*
G36*
X6240Y2315D02*
Y2185D01*
X6205Y2185D01*
Y2315D01*
X6240Y2315D01*
D02*
G37*
G36*
X4965Y2100D02*
X4835D01*
Y2135D01*
X4965D01*
Y2100D01*
D02*
G37*
G36*
Y1945D02*
X4835D01*
X4835Y1980D01*
X4965D01*
X4965Y1945D01*
D02*
G37*
G36*
X5685Y2065D02*
X5755D01*
Y2015D01*
X5685D01*
Y1935D01*
X5645D01*
Y2145D01*
X5685D01*
Y2065D01*
D02*
G37*
G36*
X15545Y1599D02*
X15415D01*
X15415Y1634D01*
X15545D01*
X15545Y1599D01*
D02*
G37*
G36*
X3550Y1725D02*
X3250Y1575D01*
Y1875D01*
X3550Y1725D01*
D02*
G37*
G36*
X15545Y1444D02*
X15415D01*
Y1479D01*
X15545D01*
Y1444D01*
D02*
G37*
G36*
X6540Y1230D02*
X6360D01*
Y1265D01*
X6540D01*
Y1230D01*
D02*
G37*
G36*
X6090D02*
X5910D01*
Y1265D01*
X6090D01*
Y1230D01*
D02*
G37*
G36*
X6540Y1135D02*
X6360D01*
Y1170D01*
X6540D01*
Y1135D01*
D02*
G37*
G36*
X6090D02*
X5910D01*
Y1170D01*
X6090D01*
Y1135D01*
D02*
G37*
G36*
X7715Y1110D02*
X7680D01*
Y1290D01*
X7715D01*
Y1110D01*
D02*
G37*
G36*
X7620D02*
X7585D01*
Y1290D01*
X7620D01*
Y1110D01*
D02*
G37*
G36*
X15545Y1099D02*
X15510D01*
Y1279D01*
X15545D01*
Y1099D01*
D02*
G37*
G36*
X15450D02*
X15415D01*
Y1279D01*
X15450D01*
Y1099D01*
D02*
G37*
G36*
X7715Y710D02*
X7680D01*
Y890D01*
X7715D01*
Y710D01*
D02*
G37*
G36*
X7620D02*
X7585D01*
Y890D01*
X7620D01*
Y710D01*
D02*
G37*
G36*
X7715Y510D02*
X7585D01*
X7585Y545D01*
X7715D01*
X7715Y510D01*
D02*
G37*
G36*
X6215Y410D02*
X6180D01*
Y590D01*
X6215D01*
Y410D01*
D02*
G37*
G36*
X6120D02*
X6085D01*
Y590D01*
X6120D01*
Y410D01*
D02*
G37*
G36*
X7715Y355D02*
X7585D01*
Y390D01*
X7715D01*
Y355D01*
D02*
G37*
G36*
X4015Y210D02*
X3885D01*
Y245D01*
X4015D01*
Y210D01*
D02*
G37*
G36*
X7715Y160D02*
X7585D01*
X7585Y195D01*
X7715D01*
X7715Y160D01*
D02*
G37*
G36*
X4015Y55D02*
X3885D01*
X3885Y90D01*
X4015D01*
X4015Y55D01*
D02*
G37*
G36*
X7715Y5D02*
X7585D01*
Y40D01*
X7715D01*
Y5D01*
D02*
G37*
G36*
X4015Y-190D02*
X3885D01*
Y-155D01*
X4015D01*
Y-190D01*
D02*
G37*
G36*
X7715Y-340D02*
X7680D01*
Y-160D01*
X7715D01*
Y-340D01*
D02*
G37*
G36*
X7620D02*
X7585D01*
Y-160D01*
X7620D01*
Y-340D01*
D02*
G37*
G36*
X4015Y-345D02*
X3885D01*
X3885Y-310D01*
X4015D01*
X4015Y-345D01*
D02*
G37*
G36*
X7715Y-540D02*
X7585D01*
X7585Y-505D01*
X7715D01*
X7715Y-540D01*
D02*
G37*
G36*
X7715Y-695D02*
X7585D01*
Y-660D01*
X7715D01*
Y-695D01*
D02*
G37*
G36*
X7715Y-890D02*
X7585D01*
X7585Y-855D01*
X7715D01*
X7715Y-890D01*
D02*
G37*
G36*
X7715Y-1045D02*
X7585D01*
Y-1010D01*
X7715D01*
Y-1045D01*
D02*
G37*
G36*
X3795Y-1065D02*
X3760D01*
Y-935D01*
X3795D01*
Y-1065D01*
D02*
G37*
G36*
X3640Y-935D02*
Y-1065D01*
X3605Y-1065D01*
Y-935D01*
X3640Y-935D01*
D02*
G37*
G36*
X6695Y-1165D02*
X6660D01*
Y-1035D01*
X6695D01*
Y-1165D01*
D02*
G37*
G36*
X6540Y-1035D02*
Y-1165D01*
X6505Y-1165D01*
Y-1035D01*
X6540Y-1035D01*
D02*
G37*
G36*
X7715Y-1240D02*
X7585D01*
X7585Y-1205D01*
X7715D01*
X7715Y-1240D01*
D02*
G37*
G36*
X7715Y-1395D02*
X7585D01*
Y-1360D01*
X7715D01*
Y-1395D01*
D02*
G37*
G36*
X12315Y-1690D02*
X12185D01*
Y-1655D01*
X12315D01*
Y-1690D01*
D02*
G37*
G36*
X13665Y-1790D02*
X13630D01*
Y-1610D01*
X13665D01*
Y-1790D01*
D02*
G37*
G36*
X13570D02*
X13535D01*
Y-1610D01*
X13570D01*
Y-1790D01*
D02*
G37*
G36*
X12315Y-1845D02*
X12185D01*
X12185Y-1810D01*
X12315D01*
X12315Y-1845D01*
D02*
G37*
G36*
X12995Y-2065D02*
X12960Y-2065D01*
Y-1935D01*
X12995Y-1935D01*
Y-2065D01*
D02*
G37*
G36*
X12840D02*
X12805D01*
Y-1935D01*
X12840D01*
Y-2065D01*
D02*
G37*
G36*
X12315Y-2090D02*
X12185D01*
X12185Y-2055D01*
X12315D01*
X12315Y-2090D01*
D02*
G37*
G36*
X13665Y-2240D02*
X13630D01*
Y-2060D01*
X13665D01*
Y-2240D01*
D02*
G37*
G36*
X13570D02*
X13535D01*
Y-2060D01*
X13570D01*
Y-2240D01*
D02*
G37*
G36*
X12315Y-2245D02*
X12185D01*
Y-2210D01*
X12315D01*
Y-2245D01*
D02*
G37*
D10*
X5749Y-150D02*
G03*
X5749Y-150I-49J0D01*
G01*
D11*
X5034Y-8355D02*
Y-7946D01*
X3561Y-7946D02*
X5034Y-7946D01*
X3561Y-8347D02*
Y-7946D01*
X3561Y-9095D02*
Y-8686D01*
Y-9095D02*
X5034Y-9095D01*
Y-8702D01*
X5144Y-6405D02*
Y-6012D01*
X3671Y-6405D02*
X5144Y-6405D01*
X3671Y-6405D02*
Y-5996D01*
X3671Y-5657D02*
Y-5256D01*
X5144Y-5256D01*
Y-5665D02*
Y-5256D01*
X18116Y-7141D02*
Y-6747D01*
X16644Y-7141D02*
X18116Y-7141D01*
X16644Y-7141D02*
Y-6731D01*
X16644Y-6393D02*
Y-5991D01*
X18116Y-5991D01*
Y-6401D02*
Y-5991D01*
X18206Y-8941D02*
Y-8547D01*
X16734Y-8941D02*
X18206Y-8941D01*
X16734Y-8941D02*
Y-8531D01*
X16734Y-8193D02*
Y-7791D01*
X18206Y-7791D01*
Y-8201D02*
Y-7791D01*
X13422Y-889D02*
Y-357D01*
X12378Y-889D02*
Y-357D01*
X12377D02*
X12556D01*
X13244D02*
X13422D01*
X12072Y-889D02*
Y-357D01*
X11028Y-889D02*
Y-357D01*
X11027D02*
X11206D01*
X11894D02*
X12072D01*
X5204Y490D02*
Y824D01*
X4771Y490D02*
X5204D01*
Y1376D02*
Y1710D01*
X4771D02*
X5204D01*
D12*
X6450Y-6810D02*
X6850D01*
X6450Y-7910D02*
Y-6810D01*
Y-7910D02*
X6850D01*
Y-6810D01*
X6500Y-7510D02*
X6850D01*
X7450Y-6810D02*
X7850D01*
X7450Y-7910D02*
Y-6810D01*
Y-7910D02*
X7850D01*
Y-6810D01*
X7500Y-7510D02*
X7850D01*
X8450Y-6810D02*
X8850D01*
X8450Y-7910D02*
Y-6810D01*
Y-7910D02*
X8850D01*
Y-6810D01*
X8500Y-7510D02*
X8850D01*
X9500D02*
X9850D01*
X9450Y-6810D02*
X9850D01*
X9450Y-7910D02*
Y-6810D01*
Y-7910D02*
X9850D01*
Y-6810D01*
X5945Y-6140D02*
X10355D01*
X5945Y-8580D02*
Y-6140D01*
Y-8580D02*
X10355D01*
Y-6140D01*
X11890Y-6690D02*
X12290D01*
X11890Y-7790D02*
Y-6690D01*
Y-7790D02*
X12290D01*
Y-6690D01*
X11940Y-7390D02*
X12290D01*
X12890Y-6690D02*
X13290D01*
X12890Y-7790D02*
Y-6690D01*
Y-7790D02*
X13290D01*
Y-6690D01*
X12940Y-7390D02*
X13290D01*
X13890Y-6690D02*
X14290D01*
X13890Y-7790D02*
Y-6690D01*
Y-7790D02*
X14290D01*
Y-6690D01*
X13940Y-7390D02*
X14290D01*
X14940D02*
X15290D01*
X14890Y-6690D02*
X15290D01*
X14890Y-7790D02*
Y-6690D01*
Y-7790D02*
X15290D01*
Y-6690D01*
X11385Y-6020D02*
X15795D01*
X11385Y-8460D02*
Y-6020D01*
Y-8460D02*
X15795D01*
Y-6020D01*
X8500Y-2500D02*
X17900D01*
Y2500D01*
X8500Y-2500D02*
Y2500D01*
X17900D01*
X19550Y620D02*
X20160D01*
X11431Y-3719D02*
Y-4219D01*
X11531Y-4319D01*
X11731D01*
X11831Y-4219D01*
Y-3719D01*
X12431D02*
X12031D01*
Y-4019D01*
X12231Y-3919D01*
X12331D01*
X12431Y-4019D01*
Y-4219D01*
X12331Y-4319D01*
X12131D01*
X12031Y-4219D01*
X5991Y-3839D02*
Y-4339D01*
X6091Y-4439D01*
X6291D01*
X6391Y-4339D01*
Y-3839D01*
X6591Y-3939D02*
X6691Y-3839D01*
X6891D01*
X6991Y-3939D01*
Y-4039D01*
X6891Y-4139D01*
X6791D01*
X6891D01*
X6991Y-4239D01*
Y-4339D01*
X6891Y-4439D01*
X6691D01*
X6591Y-4339D01*
X16701Y-5649D02*
Y-5249D01*
X16901D01*
X16968Y-5316D01*
Y-5449D01*
X16901Y-5516D01*
X16701D01*
X16835D02*
X16968Y-5649D01*
X17101D02*
Y-5249D01*
X17301D01*
X17368Y-5316D01*
Y-5449D01*
X17301Y-5516D01*
X17101D01*
X17501Y-5316D02*
X17568Y-5249D01*
X17701D01*
X17768Y-5316D01*
Y-5382D01*
X17701Y-5449D01*
X17634D01*
X17701D01*
X17768Y-5516D01*
Y-5582D01*
X17701Y-5649D01*
X17568D01*
X17501Y-5582D01*
X3625Y-7609D02*
Y-7209D01*
X3825D01*
X3891Y-7276D01*
Y-7409D01*
X3825Y-7476D01*
X3625D01*
X3758D02*
X3891Y-7609D01*
X4025D02*
Y-7209D01*
X4225D01*
X4291Y-7276D01*
Y-7409D01*
X4225Y-7476D01*
X4025D01*
X4691Y-7609D02*
X4425D01*
X4691Y-7342D01*
Y-7276D01*
X4625Y-7209D01*
X4491D01*
X4425Y-7276D01*
X3736Y-4919D02*
Y-4519D01*
X3936D01*
X4003Y-4586D01*
Y-4719D01*
X3936Y-4786D01*
X3736D01*
X3870D02*
X4003Y-4919D01*
X4136D02*
Y-4519D01*
X4336D01*
X4403Y-4586D01*
Y-4719D01*
X4336Y-4786D01*
X4136D01*
X4536Y-4919D02*
X4669D01*
X4603D01*
Y-4519D01*
X4536Y-4586D01*
D13*
X13535Y-2060D02*
X13570D01*
X13535Y-2240D02*
X13570D01*
Y-2060D01*
X13535Y-2240D02*
Y-2060D01*
X13665Y-2240D02*
Y-2060D01*
X13630Y-2240D02*
Y-2060D01*
X13665D01*
X13630Y-2240D02*
X13665D01*
X6090Y1230D02*
Y1265D01*
X5910Y1230D02*
Y1265D01*
Y1230D02*
X6090D01*
X5910Y1265D02*
X6090D01*
X5910Y1135D02*
X6090D01*
X5910Y1170D02*
X6090D01*
Y1135D02*
Y1170D01*
X5910Y1135D02*
Y1170D01*
X12185Y-1655D02*
X12315D01*
Y-1690D02*
Y-1655D01*
X12185Y-1690D02*
X12315D01*
X12185D02*
Y-1655D01*
X12315Y-1845D02*
Y-1810D01*
X12185D02*
X12315D01*
X12185Y-1845D02*
Y-1810D01*
Y-1845D02*
X12315D01*
X12185Y-2245D02*
X12315D01*
X12185D02*
Y-2210D01*
X12315D01*
Y-2245D02*
Y-2210D01*
X12185Y-2090D02*
Y-2055D01*
Y-2090D02*
X12315D01*
Y-2055D01*
X12185D02*
X12315D01*
X6180Y410D02*
X6215D01*
X6180Y590D02*
X6215D01*
X6180Y410D02*
Y590D01*
X6215Y410D02*
Y590D01*
X6085Y410D02*
Y590D01*
X6120Y410D02*
Y590D01*
X6085Y410D02*
X6120D01*
X6085Y590D02*
X6120D01*
X6360Y1135D02*
Y1170D01*
X6540Y1135D02*
Y1170D01*
X6360D02*
X6540D01*
X6360Y1135D02*
X6540D01*
X6360Y1265D02*
X6540D01*
X6360Y1230D02*
X6540D01*
X6360D02*
Y1265D01*
X6540Y1230D02*
Y1265D01*
X3605Y-1065D02*
Y-935D01*
X3640D01*
Y-1065D02*
Y-935D01*
X3605Y-1065D02*
X3640D01*
X3760Y-935D02*
X3795D01*
X3760Y-1065D02*
Y-935D01*
Y-1065D02*
X3795D01*
Y-935D01*
X12995Y-2065D02*
Y-1935D01*
X12960Y-2065D02*
X12995D01*
X12960D02*
Y-1935D01*
X12995D01*
X12805Y-2065D02*
X12840D01*
Y-1935D01*
X12805D02*
X12840D01*
X12805Y-2065D02*
Y-1935D01*
X6505Y-1165D02*
Y-1035D01*
X6540D01*
Y-1165D02*
Y-1035D01*
X6505Y-1165D02*
X6540D01*
X6660Y-1035D02*
X6695D01*
X6660Y-1165D02*
Y-1035D01*
Y-1165D02*
X6695D01*
Y-1035D01*
X13630Y-1790D02*
X13665D01*
X13630Y-1610D02*
X13665D01*
X13630Y-1790D02*
Y-1610D01*
X13665Y-1790D02*
Y-1610D01*
X13535Y-1790D02*
Y-1610D01*
X13570Y-1790D02*
Y-1610D01*
X13535Y-1790D02*
X13570D01*
X13535Y-1610D02*
X13570D01*
X15415Y1634D02*
X15545D01*
Y1599D02*
Y1634D01*
X15415Y1599D02*
X15545D01*
X15415D02*
Y1634D01*
X15545Y1444D02*
Y1479D01*
X15415D02*
X15545D01*
X15415Y1444D02*
Y1479D01*
Y1444D02*
X15545D01*
X15415Y1279D02*
X15450D01*
X15415Y1099D02*
X15450D01*
Y1279D01*
X15415Y1099D02*
Y1279D01*
X15545Y1099D02*
Y1279D01*
X15510Y1099D02*
Y1279D01*
X15545D01*
X15510Y1099D02*
X15545D01*
X3885Y-345D02*
X4015D01*
X3885D02*
Y-310D01*
X4015D01*
Y-345D02*
Y-310D01*
X3885Y-190D02*
Y-155D01*
Y-190D02*
X4015D01*
Y-155D01*
X3885D02*
X4015D01*
X3885Y55D02*
X4015D01*
X3885D02*
Y90D01*
X4015D01*
Y55D02*
Y90D01*
X3885Y210D02*
Y245D01*
Y210D02*
X4015D01*
Y245D01*
X3885D02*
X4015D01*
X7680Y710D02*
X7715D01*
X7680Y890D02*
X7715D01*
X7680Y710D02*
Y890D01*
X7715Y710D02*
Y890D01*
X7585Y710D02*
Y890D01*
X7620Y710D02*
Y890D01*
X7585Y710D02*
X7620D01*
X7585Y890D02*
X7620D01*
X5645Y2145D02*
X5685D01*
Y2015D02*
X5755D01*
X5685Y2065D02*
X5755D01*
X5645Y1935D02*
X5685D01*
Y2015D01*
X5755D02*
Y2065D01*
X5685D02*
Y2145D01*
X5645Y1935D02*
Y2145D01*
X4835Y1945D02*
X4965D01*
X4835D02*
Y1980D01*
X4965D01*
Y1945D02*
Y1980D01*
X4835Y2100D02*
Y2135D01*
Y2100D02*
X4965D01*
Y2135D01*
X4835D02*
X4965D01*
X5645Y2545D02*
X5685D01*
Y2415D02*
X5755D01*
X5685Y2465D02*
X5755D01*
X5645Y2335D02*
X5685D01*
Y2415D01*
X5755D02*
Y2465D01*
X5685D02*
Y2545D01*
X5645Y2335D02*
Y2545D01*
X4835Y2345D02*
X4965D01*
X4835D02*
Y2380D01*
X4965D01*
Y2345D02*
Y2380D01*
X4835Y2500D02*
Y2535D01*
Y2500D02*
X4965D01*
Y2535D01*
X4835D02*
X4965D01*
X7585Y-855D02*
X7715D01*
Y-890D02*
Y-855D01*
X7585Y-890D02*
X7715D01*
X7585D02*
Y-855D01*
X7715Y-1045D02*
Y-1010D01*
X7585D02*
X7715D01*
X7585Y-1045D02*
Y-1010D01*
Y-1045D02*
X7715D01*
X7585Y-1205D02*
X7715D01*
Y-1240D02*
Y-1205D01*
X7585Y-1240D02*
X7715D01*
X7585D02*
Y-1205D01*
X7715Y-1395D02*
Y-1360D01*
X7585D02*
X7715D01*
X7585Y-1395D02*
Y-1360D01*
Y-1395D02*
X7715D01*
X7585Y-505D02*
X7715D01*
Y-540D02*
Y-505D01*
X7585Y-540D02*
X7715D01*
X7585D02*
Y-505D01*
X7715Y-695D02*
Y-660D01*
X7585D02*
X7715D01*
X7585Y-695D02*
Y-660D01*
Y-695D02*
X7715D01*
X6205Y2185D02*
Y2315D01*
X6240D01*
Y2185D02*
Y2315D01*
X6205Y2185D02*
X6240D01*
X6360Y2315D02*
X6395D01*
X6360Y2185D02*
Y2315D01*
Y2185D02*
X6395D01*
Y2315D01*
X7585Y195D02*
X7715D01*
Y160D02*
Y195D01*
X7585Y160D02*
X7715D01*
X7585D02*
Y195D01*
X7715Y5D02*
Y40D01*
X7585D02*
X7715D01*
X7585Y5D02*
Y40D01*
Y5D02*
X7715D01*
X7585Y545D02*
X7715D01*
Y510D02*
Y545D01*
X7585Y510D02*
X7715D01*
X7585D02*
Y545D01*
X7715Y355D02*
Y390D01*
X7585D02*
X7715D01*
X7585Y355D02*
Y390D01*
Y355D02*
X7715D01*
X7680Y-340D02*
X7715D01*
X7680Y-160D02*
X7715D01*
X7680Y-340D02*
Y-160D01*
X7715Y-340D02*
Y-160D01*
X7585Y-340D02*
Y-160D01*
X7620Y-340D02*
Y-160D01*
X7585Y-340D02*
X7620D01*
X7585Y-160D02*
X7620D01*
X7680Y1110D02*
X7715D01*
X7680Y1290D02*
X7715D01*
X7680Y1110D02*
Y1290D01*
X7715Y1110D02*
Y1290D01*
X7585Y1110D02*
Y1290D01*
X7620Y1110D02*
Y1290D01*
X7585Y1110D02*
X7620D01*
X7585Y1290D02*
X7620D01*
D14*
X17370Y628D02*
X17528Y470D01*
X14772Y-2128D02*
X14930D01*
X14772Y470D02*
Y628D01*
X14930D01*
X14772Y-2128D02*
Y-1970D01*
X17528Y-2128D02*
Y-1970D01*
X17370Y-2128D02*
X17528D01*
D15*
X4115Y-515D02*
X4318D01*
X5882D02*
X6085D01*
Y-2485D02*
Y-2282D01*
X4115Y-2485D02*
X4318D01*
X4115Y-718D02*
Y-515D01*
X6085Y-718D02*
Y-515D01*
X4115Y-2485D02*
Y-2282D01*
X5882Y-2485D02*
X6085D01*
X6560Y4190D02*
X6600Y4150D01*
X4840Y4190D02*
X6560D01*
X6570Y3010D02*
X6610Y3050D01*
X4830Y3010D02*
X6570D01*
X4790Y3050D02*
X4830Y3010D01*
X4800Y4150D02*
X4840Y4190D01*
X3960D02*
X4000Y4150D01*
X2240Y4190D02*
X3960D01*
X3970Y3010D02*
X4010Y3050D01*
X2230Y3010D02*
X3970D01*
X2190Y3050D02*
X2230Y3010D01*
X2200Y4150D02*
X2240Y4190D01*
D16*
X34Y-1703D02*
Y1703D01*
X636D01*
X1436Y1700D02*
X2136D01*
X34Y-1703D02*
X636D01*
X1436Y-1700D02*
X2136D01*
X9850Y-4821D02*
X9721D01*
X9786D01*
Y-5207D01*
X9850Y-5142D01*
X8593Y-4829D02*
X8850D01*
X8593Y-5086D01*
Y-5150D01*
X8657Y-5215D01*
X8786D01*
X8850Y-5150D01*
X7850D02*
X7786Y-5215D01*
X7657D01*
X7593Y-5150D01*
Y-5086D01*
X7657Y-5022D01*
X7721D01*
X7657D01*
X7593Y-4957D01*
Y-4893D01*
X7657Y-4829D01*
X7786D01*
X7850Y-4893D01*
X6657Y-4821D02*
Y-5207D01*
X6850Y-5014D01*
X6593D01*
X15290Y-4701D02*
X15161D01*
X15226D01*
Y-5087D01*
X15290Y-5022D01*
X14033Y-4709D02*
X14290D01*
X14033Y-4966D01*
Y-5030D01*
X14097Y-5095D01*
X14226D01*
X14290Y-5030D01*
X13290D02*
X13226Y-5095D01*
X13097D01*
X13033Y-5030D01*
Y-4966D01*
X13097Y-4902D01*
X13161D01*
X13097D01*
X13033Y-4837D01*
Y-4773D01*
X13097Y-4709D01*
X13226D01*
X13290Y-4773D01*
X12097Y-4701D02*
Y-5087D01*
X12290Y-4894D01*
X12033D01*
M02*
