G04*
G04 #@! TF.GenerationSoftware,Altium Limited,Altium Designer,19.0.4 (130)*
G04*
G04 Layer_Color=8388736*
%FSLAX24Y24*%
%MOIN*%
G70*
G01*
G75*
%ADD75C,0.0020*%
G36*
X5350Y2210D02*
X5450D01*
Y2160D01*
Y2150D01*
X5442Y2132D01*
X5428Y2118D01*
X5410Y2110D01*
X5400D01*
D01*
X5350D01*
Y2210D01*
D02*
G37*
G36*
Y2610D02*
X5450D01*
Y2560D01*
Y2550D01*
X5442Y2532D01*
X5428Y2518D01*
X5410Y2510D01*
X5400D01*
D01*
X5350D01*
Y2610D01*
D02*
G37*
D75*
X13250Y-1980D02*
X13950D01*
Y-2320D02*
Y-1980D01*
X13250Y-2320D02*
Y-1980D01*
Y-2320D02*
X13950D01*
X6170Y850D02*
Y1550D01*
X5830Y850D02*
X6170D01*
X5830Y1550D02*
X6170D01*
X5830Y850D02*
Y1550D01*
X7400Y3100D02*
Y4100D01*
Y3100D02*
X19400D01*
X7400Y4100D02*
X19400D01*
Y3100D02*
Y4100D01*
X11900Y-1580D02*
X12600D01*
Y-1920D02*
Y-1580D01*
X11900Y-1920D02*
Y-1580D01*
Y-1920D02*
X12600D01*
X11900Y-2320D02*
X12600D01*
X11900D02*
Y-1980D01*
X12600Y-2320D02*
Y-1980D01*
X11900D02*
X12600D01*
X5800Y330D02*
X6500D01*
X5800D02*
Y670D01*
X6500Y330D02*
Y670D01*
X5800D02*
X6500D01*
X6280Y850D02*
Y1550D01*
X6620D01*
X6280Y850D02*
X6620D01*
Y1550D01*
X3530Y-1350D02*
Y-650D01*
X3870D01*
X3530Y-1350D02*
X3870D01*
Y-650D01*
X13070Y-2350D02*
Y-1650D01*
X12730Y-2350D02*
X13070D01*
X12730Y-1650D02*
X13070D01*
X12730Y-2350D02*
Y-1650D01*
X6430Y-1450D02*
Y-750D01*
X6770D01*
X6430Y-1450D02*
X6770D01*
Y-750D01*
X13250Y-1870D02*
X13950D01*
X13250D02*
Y-1530D01*
X13950Y-1870D02*
Y-1530D01*
X13250D02*
X13950D01*
X15130Y1709D02*
X15830D01*
Y1369D02*
Y1709D01*
X15130Y1369D02*
Y1709D01*
Y1369D02*
X15830D01*
X15130Y1359D02*
X15830D01*
Y1019D02*
Y1359D01*
X15130Y1019D02*
Y1359D01*
Y1019D02*
X15830D01*
X3600Y-420D02*
X4300D01*
X3600D02*
Y-80D01*
X4300Y-420D02*
Y-80D01*
X3600D02*
X4300D01*
X3600Y-20D02*
X4300D01*
X3600D02*
Y320D01*
X4300Y-20D02*
Y320D01*
X3600D02*
X4300D01*
X7300Y630D02*
X8000D01*
X7300D02*
Y970D01*
X8000Y630D02*
Y970D01*
X7300D02*
X8000D01*
X5350Y2210D02*
X6050D01*
Y1870D02*
Y2210D01*
X5350Y1870D02*
Y2210D01*
Y1870D02*
X6050D01*
X4550D02*
X5250D01*
X4550D02*
Y2210D01*
X5250Y1870D02*
Y2210D01*
X4550D02*
X5250D01*
X5350Y2610D02*
X6050D01*
Y2270D02*
Y2610D01*
X5350Y2270D02*
Y2610D01*
Y2270D02*
X6050D01*
X4550D02*
X5250D01*
X4550D02*
Y2610D01*
X5250Y2270D02*
Y2610D01*
X4550D02*
X5250D01*
X7300Y-780D02*
X8000D01*
Y-1120D02*
Y-780D01*
X7300Y-1120D02*
Y-780D01*
Y-1120D02*
X8000D01*
X7300Y-1130D02*
X8000D01*
Y-1470D02*
Y-1130D01*
X7300Y-1470D02*
Y-1130D01*
Y-1470D02*
X8000D01*
X7300Y-430D02*
X8000D01*
Y-770D02*
Y-430D01*
X7300Y-770D02*
Y-430D01*
Y-770D02*
X8000D01*
X4450Y4350D02*
X6950D01*
X4450Y2850D02*
Y4350D01*
Y2850D02*
X6950D01*
Y4350D01*
X6130Y1900D02*
Y2600D01*
X6470D01*
X6130Y1900D02*
X6470D01*
Y2600D01*
X7300Y270D02*
X8000D01*
Y-70D02*
Y270D01*
X7300Y-70D02*
Y270D01*
Y-70D02*
X8000D01*
X7300Y620D02*
X8000D01*
Y280D02*
Y620D01*
X7300Y280D02*
Y620D01*
Y280D02*
X8000D01*
X7300Y-420D02*
X8000D01*
X7300D02*
Y-80D01*
X8000Y-420D02*
Y-80D01*
X7300D02*
X8000D01*
X1850Y4350D02*
X4350D01*
X1850Y2850D02*
Y4350D01*
Y2850D02*
X4350D01*
Y4350D01*
X7300Y1030D02*
X8000D01*
X7300D02*
Y1370D01*
X8000Y1030D02*
Y1370D01*
X7300D02*
X8000D01*
X1400Y-4100D02*
X19400D01*
X1400Y-3100D02*
X19400D01*
Y-4100D02*
Y-3100D01*
X1400Y-4100D02*
Y-3100D01*
M02*
