G04*
G04 #@! TF.GenerationSoftware,Altium Limited,Altium Designer,19.0.4 (130)*
G04*
G04 Layer_Physical_Order=2*
G04 Layer_Color=16711680*
%FSLAX24Y24*%
%MOIN*%
G70*
G01*
G75*
%ADD15C,0.0060*%
%ADD59C,0.0070*%
%ADD60C,0.0150*%
%ADD62C,0.0500*%
%ADD63C,0.1181*%
%ADD64O,0.0827X0.0394*%
%ADD65O,0.0630X0.0394*%
%ADD66C,0.0256*%
%ADD67C,0.0200*%
%ADD68C,0.0240*%
%ADD69C,0.0160*%
%ADD70C,0.0180*%
%ADD71R,0.0197X0.0197*%
G36*
X6597Y4188D02*
X6618Y4138D01*
X6365Y3885D01*
X6345Y3855D01*
X6338Y3820D01*
Y2420D01*
X6345Y2385D01*
X6365Y2355D01*
X6488Y2232D01*
X6491Y2225D01*
X6495Y2220D01*
X6497Y2218D01*
X6498Y2216D01*
X6500Y2213D01*
X6501Y2209D01*
X6503Y2205D01*
X6504Y2200D01*
X6504Y2195D01*
X6505Y2189D01*
X6505Y2180D01*
X6508Y2172D01*
X6519Y2118D01*
X6555Y2065D01*
X6608Y2029D01*
X6670Y2017D01*
X6732Y2029D01*
X6785Y2065D01*
X6821Y2118D01*
X6833Y2180D01*
X6821Y2242D01*
X6785Y2295D01*
X6732Y2331D01*
X6678Y2342D01*
X6670Y2345D01*
X6661Y2345D01*
X6655Y2346D01*
X6650Y2346D01*
X6645Y2347D01*
X6641Y2349D01*
X6637Y2350D01*
X6634Y2352D01*
X6632Y2353D01*
X6630Y2355D01*
X6625Y2359D01*
X6618Y2362D01*
X6522Y2458D01*
Y3782D01*
X6758Y4018D01*
X11082D01*
X11328Y3772D01*
Y3220D01*
X11335Y3185D01*
X11355Y3155D01*
X11835Y2675D01*
X11865Y2655D01*
X11900Y2648D01*
X13239D01*
X13255Y2625D01*
X13308Y2589D01*
X13370Y2577D01*
X13432Y2589D01*
X13485Y2625D01*
X13501Y2648D01*
X14902D01*
X15192Y2358D01*
X15187Y2330D01*
X15199Y2268D01*
X15235Y2215D01*
X15244Y2208D01*
X15229Y2158D01*
X15222D01*
Y2152D01*
X14704D01*
X14675Y2195D01*
X14622Y2231D01*
X14560Y2243D01*
X14498Y2231D01*
X14445Y2195D01*
X14409Y2142D01*
X14397Y2080D01*
X14409Y2018D01*
X14445Y1965D01*
X14498Y1929D01*
X14560Y1917D01*
X14622Y1929D01*
X14675Y1965D01*
X14678Y1968D01*
X15222D01*
Y1842D01*
X15512D01*
X15538Y1842D01*
X15588Y1842D01*
X15878D01*
Y1908D01*
X16552D01*
X16772Y1688D01*
X16753Y1642D01*
X15878D01*
Y1708D01*
X15562D01*
Y1708D01*
X15538D01*
Y1708D01*
X15222D01*
Y1642D01*
X14801D01*
X14785Y1665D01*
X14732Y1701D01*
X14670Y1713D01*
X14608Y1701D01*
X14555Y1665D01*
X14519Y1612D01*
X14507Y1550D01*
X14519Y1488D01*
X14543Y1452D01*
X14521Y1402D01*
X14440D01*
X14405Y1395D01*
X14375Y1375D01*
X14035Y1035D01*
X14015Y1005D01*
X14008Y970D01*
Y751D01*
X13985Y736D01*
X13950Y683D01*
X13937Y620D01*
X13950Y558D01*
X13985Y505D01*
X14038Y470D01*
X14100Y457D01*
X14163Y470D01*
X14216Y505D01*
X14251Y558D01*
X14263Y620D01*
X14251Y683D01*
X14216Y736D01*
X14192Y752D01*
Y814D01*
X14242Y829D01*
X14265Y795D01*
X14318Y759D01*
X14380Y747D01*
X14442Y759D01*
X14495Y795D01*
X14531Y848D01*
X14543Y910D01*
X14538Y938D01*
X14688Y1088D01*
X16863D01*
X17758Y193D01*
Y-550D01*
X17765Y-585D01*
X17785Y-615D01*
X17819Y-649D01*
X17794Y-695D01*
X17747Y-685D01*
X17685Y-698D01*
X17632Y-733D01*
X17597Y-786D01*
X17584Y-848D01*
X17590Y-876D01*
X15102Y-3364D01*
X15056Y-3329D01*
X14981Y-3298D01*
X14900Y-3287D01*
X14819Y-3298D01*
X14744Y-3329D01*
X14679Y-3379D01*
X14629Y-3444D01*
X14598Y-3519D01*
X14587Y-3600D01*
X14598Y-3681D01*
X14629Y-3756D01*
X14679Y-3821D01*
X14744Y-3871D01*
X14819Y-3902D01*
X14900Y-3913D01*
X14981Y-3902D01*
X15056Y-3871D01*
X15121Y-3821D01*
X15171Y-3756D01*
X15202Y-3681D01*
X15213Y-3600D01*
X15203Y-3523D01*
X15758Y-2967D01*
X15808Y-2988D01*
Y-3302D01*
X15744Y-3329D01*
X15679Y-3379D01*
X15629Y-3444D01*
X15598Y-3519D01*
X15587Y-3600D01*
X15598Y-3681D01*
X15629Y-3756D01*
X15679Y-3821D01*
X15744Y-3871D01*
X15819Y-3902D01*
X15900Y-3913D01*
X15981Y-3902D01*
X16056Y-3871D01*
X16121Y-3821D01*
X16171Y-3756D01*
X16202Y-3681D01*
X16213Y-3600D01*
X16202Y-3519D01*
X16171Y-3444D01*
X16121Y-3379D01*
X16056Y-3329D01*
X15992Y-3302D01*
Y-2978D01*
X16472Y-2498D01*
X16518Y-2517D01*
Y-3032D01*
X16502Y-3048D01*
X16495Y-3051D01*
X16490Y-3055D01*
X16488Y-3057D01*
X16486Y-3058D01*
X16483Y-3060D01*
X16479Y-3061D01*
X16475Y-3063D01*
X16470Y-3064D01*
X16465Y-3064D01*
X16459Y-3065D01*
X16450Y-3065D01*
X16442Y-3068D01*
X16388Y-3079D01*
X16335Y-3115D01*
X16299Y-3168D01*
X16287Y-3230D01*
X16299Y-3292D01*
X16335Y-3345D01*
X16388Y-3381D01*
X16450Y-3393D01*
X16512Y-3381D01*
X16565Y-3345D01*
X16601Y-3292D01*
X16612Y-3238D01*
X16615Y-3230D01*
X16615Y-3221D01*
X16616Y-3215D01*
X16616Y-3210D01*
X16617Y-3205D01*
X16619Y-3201D01*
X16620Y-3197D01*
X16622Y-3194D01*
X16623Y-3192D01*
X16625Y-3190D01*
X16629Y-3185D01*
X16632Y-3178D01*
X16675Y-3135D01*
X16695Y-3105D01*
X16702Y-3070D01*
Y-2897D01*
X16752Y-2892D01*
X16754Y-2904D01*
X16774Y-2934D01*
X17268Y-3428D01*
Y-3702D01*
X17224Y-3736D01*
X17200Y-3686D01*
X17202Y-3681D01*
X17213Y-3600D01*
X17202Y-3519D01*
X17171Y-3444D01*
X17121Y-3379D01*
X17056Y-3329D01*
X16981Y-3298D01*
X16900Y-3287D01*
X16819Y-3298D01*
X16744Y-3329D01*
X16679Y-3379D01*
X16629Y-3444D01*
X16598Y-3519D01*
X16587Y-3600D01*
X16598Y-3681D01*
X16629Y-3756D01*
X16679Y-3821D01*
X16744Y-3871D01*
X16803Y-3895D01*
Y-5294D01*
X16799Y-5297D01*
X16768Y-5343D01*
X16757Y-5398D01*
X16768Y-5452D01*
X16799Y-5498D01*
X16845Y-5529D01*
X16900Y-5540D01*
X16955Y-5529D01*
X17001Y-5498D01*
X17032Y-5452D01*
X17043Y-5398D01*
X17032Y-5343D01*
X17001Y-5297D01*
X16997Y-5294D01*
Y-4639D01*
X17047Y-4627D01*
X17075Y-4668D01*
X17128Y-4704D01*
X17190Y-4716D01*
X17252Y-4704D01*
X17305Y-4668D01*
X17341Y-4616D01*
X17353Y-4553D01*
X17341Y-4491D01*
X17305Y-4438D01*
X17282Y-4422D01*
Y-4048D01*
X17285Y-4045D01*
X17297Y-4027D01*
X17362Y-4021D01*
X17545Y-4205D01*
X17575Y-4225D01*
X17610Y-4232D01*
X19090D01*
X19125Y-4225D01*
X19155Y-4205D01*
X19425Y-3935D01*
X19445Y-3905D01*
X19452Y-3870D01*
Y-3360D01*
X19445Y-3325D01*
X19425Y-3295D01*
X18692Y-2562D01*
Y880D01*
X18685Y915D01*
X18665Y945D01*
X16605Y3005D01*
X16575Y3025D01*
X16540Y3032D01*
X12598D01*
X12255Y3375D01*
X12253Y3381D01*
X12245Y3390D01*
X12241Y3397D01*
X12236Y3409D01*
X12231Y3425D01*
X12226Y3445D01*
X12222Y3467D01*
X12215Y3561D01*
X12215Y3598D01*
X12212Y3605D01*
X12202Y3681D01*
X12171Y3756D01*
X12121Y3821D01*
X12056Y3871D01*
X11981Y3902D01*
X11900Y3913D01*
X11819Y3902D01*
X11744Y3871D01*
X11679Y3821D01*
X11629Y3756D01*
X11598Y3681D01*
X11587Y3600D01*
X11598Y3519D01*
X11629Y3444D01*
X11679Y3379D01*
X11744Y3329D01*
X11819Y3298D01*
X11895Y3288D01*
X11902Y3285D01*
X11940Y3285D01*
X12005Y3281D01*
X12032Y3278D01*
X12055Y3274D01*
X12075Y3269D01*
X12091Y3264D01*
X12103Y3259D01*
X12110Y3255D01*
X12119Y3247D01*
X12125Y3246D01*
X12488Y2882D01*
X12483Y2855D01*
X12470Y2832D01*
X11938D01*
X11512Y3258D01*
Y3810D01*
X11505Y3845D01*
X11485Y3875D01*
X11222Y4138D01*
X11243Y4188D01*
X20100D01*
Y4188D01*
X20215Y4177D01*
X20325Y4143D01*
X20427Y4089D01*
X20516Y4016D01*
X20589Y3927D01*
X20643Y3825D01*
X20677Y3715D01*
X20688Y3600D01*
X20688D01*
X20688Y3600D01*
Y2100D01*
X18900D01*
Y-2150D01*
X20688D01*
Y-10104D01*
X20144Y-10648D01*
X636Y-10638D01*
X112Y-10114D01*
X112Y3600D01*
X112Y3600D01*
X112D01*
X112Y3600D01*
X123Y3715D01*
X157Y3825D01*
X211Y3927D01*
X284Y4016D01*
X373Y4089D01*
X475Y4143D01*
X585Y4177D01*
X700Y4188D01*
X700Y4188D01*
Y4188D01*
X700Y4188D01*
X6597D01*
D02*
G37*
G36*
X12150Y3558D02*
X12157Y3459D01*
X12162Y3432D01*
X12168Y3407D01*
X12175Y3386D01*
X12183Y3368D01*
X12192Y3352D01*
X12203Y3340D01*
X12160Y3297D01*
X12148Y3308D01*
X12132Y3317D01*
X12114Y3325D01*
X12093Y3332D01*
X12068Y3338D01*
X12041Y3343D01*
X12011Y3346D01*
X11942Y3350D01*
X11903Y3350D01*
X12150Y3598D01*
X12150Y3558D01*
D02*
G37*
G36*
X6588Y2305D02*
X6595Y2300D01*
X6603Y2295D01*
X6611Y2291D01*
X6619Y2287D01*
X6628Y2285D01*
X6638Y2283D01*
X6648Y2281D01*
X6658Y2280D01*
X6669Y2280D01*
X6570Y2181D01*
X6570Y2192D01*
X6569Y2202D01*
X6567Y2212D01*
X6565Y2222D01*
X6563Y2231D01*
X6559Y2239D01*
X6555Y2247D01*
X6550Y2255D01*
X6545Y2262D01*
X6539Y2269D01*
X6581Y2311D01*
X6588Y2305D01*
D02*
G37*
G36*
X17018Y2115D02*
X17025Y2110D01*
X17033Y2105D01*
X17041Y2101D01*
X17049Y2097D01*
X17058Y2095D01*
X17068Y2093D01*
X17078Y2091D01*
X17088Y2090D01*
X17099Y2090D01*
X17000Y1991D01*
X17000Y2002D01*
X16999Y2012D01*
X16997Y2022D01*
X16995Y2032D01*
X16993Y2041D01*
X16989Y2049D01*
X16985Y2057D01*
X16980Y2065D01*
X16975Y2072D01*
X16969Y2079D01*
X17011Y2121D01*
X17018Y2115D01*
D02*
G37*
G36*
X18350Y-33D02*
X18352Y-42D01*
X18354Y-51D01*
X18356Y-60D01*
X18360Y-68D01*
X18364Y-76D01*
X18370Y-85D01*
X18376Y-93D01*
X18382Y-101D01*
X18390Y-109D01*
X18250D01*
X18258Y-101D01*
X18264Y-93D01*
X18270Y-85D01*
X18276Y-76D01*
X18280Y-68D01*
X18284Y-60D01*
X18286Y-51D01*
X18288Y-42D01*
X18290Y-33D01*
X18290Y-25D01*
X18350D01*
X18350Y-33D01*
D02*
G37*
G36*
X17914Y-1509D02*
X17907Y-1501D01*
X17899Y-1495D01*
X17890Y-1489D01*
X17882Y-1483D01*
X17874Y-1479D01*
X17865Y-1475D01*
X17857Y-1473D01*
X17848Y-1471D01*
X17839Y-1469D01*
X17830Y-1469D01*
Y-1409D01*
X17839Y-1409D01*
X17848Y-1407D01*
X17857Y-1405D01*
X17865Y-1403D01*
X17874Y-1399D01*
X17882Y-1395D01*
X17890Y-1389D01*
X17899Y-1383D01*
X17907Y-1377D01*
X17914Y-1369D01*
Y-1509D01*
D02*
G37*
G36*
X18086Y-1451D02*
X18087Y-1462D01*
X18088Y-1472D01*
X18090Y-1481D01*
X18093Y-1490D01*
X18097Y-1499D01*
X18101Y-1507D01*
X18105Y-1514D01*
X18111Y-1521D01*
X18117Y-1528D01*
X18074Y-1570D01*
X18068Y-1564D01*
X18061Y-1559D01*
X18053Y-1554D01*
X18045Y-1550D01*
X18037Y-1547D01*
X18028Y-1544D01*
X18018Y-1542D01*
X18008Y-1540D01*
X17998Y-1539D01*
X17987Y-1539D01*
X18086Y-1440D01*
X18086Y-1451D01*
D02*
G37*
G36*
X16901Y-2628D02*
X16895Y-2636D01*
X16889Y-2644D01*
X16883Y-2653D01*
X16879Y-2661D01*
X16875Y-2669D01*
X16873Y-2678D01*
X16871Y-2687D01*
X16869Y-2695D01*
X16869Y-2704D01*
X16809D01*
X16809Y-2695D01*
X16807Y-2687D01*
X16805Y-2678D01*
X16803Y-2669D01*
X16799Y-2661D01*
X16795Y-2653D01*
X16789Y-2644D01*
X16783Y-2636D01*
X16777Y-2628D01*
X16769Y-2620D01*
X16909D01*
X16901Y-2628D01*
D02*
G37*
G36*
X17449Y-2930D02*
X17441Y-2922D01*
X17433Y-2916D01*
X17425Y-2910D01*
X17416Y-2904D01*
X17408Y-2900D01*
X17400Y-2896D01*
X17391Y-2894D01*
X17382Y-2892D01*
X17374Y-2890D01*
X17365Y-2890D01*
Y-2830D01*
X17374Y-2830D01*
X17382Y-2828D01*
X17391Y-2826D01*
X17400Y-2824D01*
X17408Y-2820D01*
X17416Y-2816D01*
X17425Y-2810D01*
X17433Y-2804D01*
X17441Y-2798D01*
X17449Y-2790D01*
Y-2930D01*
D02*
G37*
G36*
X16581Y-3141D02*
X16575Y-3148D01*
X16570Y-3155D01*
X16565Y-3163D01*
X16561Y-3171D01*
X16557Y-3179D01*
X16555Y-3188D01*
X16553Y-3198D01*
X16551Y-3208D01*
X16550Y-3218D01*
X16550Y-3229D01*
X16451Y-3130D01*
X16462Y-3130D01*
X16472Y-3129D01*
X16482Y-3127D01*
X16492Y-3125D01*
X16501Y-3123D01*
X16509Y-3119D01*
X16517Y-3115D01*
X16525Y-3110D01*
X16532Y-3105D01*
X16539Y-3099D01*
X16581Y-3141D01*
D02*
G37*
G36*
X18165Y-3301D02*
X18153Y-3315D01*
X18144Y-3331D01*
X18136Y-3349D01*
X18131Y-3370D01*
X18128Y-3393D01*
X18127Y-3418D01*
X18128Y-3446D01*
X18131Y-3476D01*
X18136Y-3509D01*
X18144Y-3543D01*
X17848Y-3355D01*
X17891Y-3346D01*
X18051Y-3301D01*
X18072Y-3293D01*
X18090Y-3284D01*
X18103Y-3276D01*
X18113Y-3268D01*
X18165Y-3301D01*
D02*
G37*
G36*
X18622Y-3338D02*
X18638Y-3347D01*
X18657Y-3355D01*
X18678Y-3360D01*
X18701Y-3364D01*
X18727Y-3366D01*
X18755Y-3366D01*
X18786Y-3364D01*
X18855Y-3354D01*
X18653Y-3640D01*
X18646Y-3598D01*
X18615Y-3464D01*
X18607Y-3439D01*
X18599Y-3418D01*
X18591Y-3401D01*
X18582Y-3387D01*
X18574Y-3376D01*
X18609Y-3326D01*
X18622Y-3338D01*
D02*
G37*
%LPC*%
G36*
X18900Y3913D02*
X18819Y3902D01*
X18744Y3871D01*
X18679Y3821D01*
X18629Y3756D01*
X18598Y3681D01*
X18587Y3600D01*
X18598Y3519D01*
X18629Y3444D01*
X18679Y3379D01*
X18744Y3329D01*
X18819Y3298D01*
X18900Y3287D01*
X18981Y3298D01*
X19056Y3329D01*
X19121Y3379D01*
X19171Y3444D01*
X19202Y3519D01*
X19213Y3600D01*
X19202Y3681D01*
X19171Y3756D01*
X19121Y3821D01*
X19056Y3871D01*
X18981Y3902D01*
X18900Y3913D01*
D02*
G37*
G36*
X17900D02*
X17819Y3902D01*
X17744Y3871D01*
X17679Y3821D01*
X17629Y3756D01*
X17598Y3681D01*
X17587Y3600D01*
X17598Y3519D01*
X17629Y3444D01*
X17679Y3379D01*
X17744Y3329D01*
X17819Y3298D01*
X17900Y3287D01*
X17981Y3298D01*
X18056Y3329D01*
X18121Y3379D01*
X18171Y3444D01*
X18202Y3519D01*
X18213Y3600D01*
X18202Y3681D01*
X18171Y3756D01*
X18121Y3821D01*
X18056Y3871D01*
X17981Y3902D01*
X17900Y3913D01*
D02*
G37*
G36*
X16900D02*
X16819Y3902D01*
X16744Y3871D01*
X16679Y3821D01*
X16629Y3756D01*
X16598Y3681D01*
X16587Y3600D01*
X16598Y3519D01*
X16629Y3444D01*
X16679Y3379D01*
X16744Y3329D01*
X16819Y3298D01*
X16900Y3287D01*
X16981Y3298D01*
X17056Y3329D01*
X17121Y3379D01*
X17171Y3444D01*
X17202Y3519D01*
X17213Y3600D01*
X17202Y3681D01*
X17171Y3756D01*
X17121Y3821D01*
X17056Y3871D01*
X16981Y3902D01*
X16900Y3913D01*
D02*
G37*
G36*
X15900D02*
X15819Y3902D01*
X15744Y3871D01*
X15679Y3821D01*
X15629Y3756D01*
X15598Y3681D01*
X15587Y3600D01*
X15598Y3519D01*
X15629Y3444D01*
X15679Y3379D01*
X15744Y3329D01*
X15819Y3298D01*
X15900Y3287D01*
X15981Y3298D01*
X16056Y3329D01*
X16121Y3379D01*
X16171Y3444D01*
X16202Y3519D01*
X16213Y3600D01*
X16202Y3681D01*
X16171Y3756D01*
X16121Y3821D01*
X16056Y3871D01*
X15981Y3902D01*
X15900Y3913D01*
D02*
G37*
G36*
X14900D02*
X14819Y3902D01*
X14744Y3871D01*
X14679Y3821D01*
X14629Y3756D01*
X14598Y3681D01*
X14587Y3600D01*
X14598Y3519D01*
X14629Y3444D01*
X14679Y3379D01*
X14744Y3329D01*
X14819Y3298D01*
X14900Y3287D01*
X14981Y3298D01*
X15056Y3329D01*
X15121Y3379D01*
X15171Y3444D01*
X15202Y3519D01*
X15213Y3600D01*
X15202Y3681D01*
X15171Y3756D01*
X15121Y3821D01*
X15056Y3871D01*
X14981Y3902D01*
X14900Y3913D01*
D02*
G37*
G36*
X13900D02*
X13819Y3902D01*
X13744Y3871D01*
X13679Y3821D01*
X13629Y3756D01*
X13598Y3681D01*
X13587Y3600D01*
X13598Y3519D01*
X13629Y3444D01*
X13679Y3379D01*
X13744Y3329D01*
X13819Y3298D01*
X13900Y3287D01*
X13981Y3298D01*
X14056Y3329D01*
X14121Y3379D01*
X14171Y3444D01*
X14202Y3519D01*
X14213Y3600D01*
X14202Y3681D01*
X14171Y3756D01*
X14121Y3821D01*
X14056Y3871D01*
X13981Y3902D01*
X13900Y3913D01*
D02*
G37*
G36*
X12900D02*
X12819Y3902D01*
X12744Y3871D01*
X12679Y3821D01*
X12629Y3756D01*
X12598Y3681D01*
X12587Y3600D01*
X12598Y3519D01*
X12629Y3444D01*
X12679Y3379D01*
X12744Y3329D01*
X12819Y3298D01*
X12900Y3287D01*
X12981Y3298D01*
X13056Y3329D01*
X13121Y3379D01*
X13171Y3444D01*
X13202Y3519D01*
X13213Y3600D01*
X13202Y3681D01*
X13171Y3756D01*
X13121Y3821D01*
X13056Y3871D01*
X12981Y3902D01*
X12900Y3913D01*
D02*
G37*
G36*
X8900D02*
X8819Y3902D01*
X8744Y3871D01*
X8679Y3821D01*
X8629Y3756D01*
X8598Y3681D01*
X8587Y3600D01*
X8598Y3519D01*
X8629Y3444D01*
X8679Y3379D01*
X8744Y3329D01*
X8819Y3298D01*
X8900Y3287D01*
X8981Y3298D01*
X9056Y3329D01*
X9121Y3379D01*
X9171Y3444D01*
X9202Y3519D01*
X9213Y3600D01*
X9202Y3681D01*
X9171Y3756D01*
X9121Y3821D01*
X9056Y3871D01*
X8981Y3902D01*
X8900Y3913D01*
D02*
G37*
G36*
X2436Y1329D02*
X2362Y1315D01*
X2300Y1273D01*
X2259Y1211D01*
X2244Y1138D01*
X2259Y1064D01*
X2300Y1002D01*
X2362Y961D01*
X2436Y946D01*
X2509Y961D01*
X2571Y1002D01*
X2613Y1064D01*
X2627Y1138D01*
X2613Y1211D01*
X2571Y1273D01*
X2509Y1315D01*
X2436Y1329D01*
D02*
G37*
G36*
X7900Y3913D02*
X7819Y3902D01*
X7744Y3871D01*
X7679Y3821D01*
X7629Y3756D01*
X7598Y3681D01*
X7587Y3600D01*
X7598Y3519D01*
X7629Y3444D01*
X7679Y3379D01*
X7744Y3329D01*
X7762Y3321D01*
Y2837D01*
X6628Y1703D01*
X5445D01*
X5392Y1692D01*
X5348Y1662D01*
X4751Y1065D01*
X4728Y1061D01*
X4675Y1025D01*
X4639Y972D01*
X4627Y910D01*
X4639Y848D01*
X4675Y795D01*
X4728Y759D01*
X4790Y747D01*
X4852Y759D01*
X4905Y795D01*
X4941Y848D01*
X4945Y871D01*
X5502Y1427D01*
X6685D01*
X6738Y1438D01*
X6782Y1468D01*
X7997Y2683D01*
X7997Y2683D01*
X8027Y2727D01*
X8038Y2780D01*
Y3321D01*
X8056Y3329D01*
X8121Y3379D01*
X8171Y3444D01*
X8202Y3519D01*
X8213Y3600D01*
X8202Y3681D01*
X8171Y3756D01*
X8121Y3821D01*
X8056Y3871D01*
X7981Y3902D01*
X7900Y3913D01*
D02*
G37*
G36*
X10900D02*
X10819Y3902D01*
X10744Y3871D01*
X10679Y3821D01*
X10629Y3756D01*
X10598Y3681D01*
X10587Y3600D01*
X10598Y3519D01*
X10629Y3444D01*
X10676Y3383D01*
X10679Y3376D01*
X10705Y3349D01*
X10749Y3300D01*
X10766Y3279D01*
X10779Y3260D01*
X10790Y3242D01*
X10798Y3228D01*
X10802Y3216D01*
X10804Y3207D01*
X10805Y3196D01*
X10808Y3190D01*
Y3000D01*
X10815Y2965D01*
X10835Y2935D01*
X13715Y55D01*
X13745Y35D01*
X13780Y28D01*
X13923D01*
X13945Y-21D01*
X13925Y-46D01*
X11465D01*
X11438Y4D01*
X11441Y8D01*
X11453Y70D01*
X11441Y132D01*
X11405Y185D01*
X11352Y221D01*
X11290Y233D01*
X11262Y228D01*
X9992Y1498D01*
Y3190D01*
X9995Y3196D01*
X9996Y3207D01*
X9998Y3216D01*
X10002Y3228D01*
X10010Y3242D01*
X10021Y3260D01*
X10033Y3278D01*
X10095Y3350D01*
X10121Y3376D01*
X10124Y3383D01*
X10171Y3444D01*
X10202Y3519D01*
X10213Y3600D01*
X10202Y3681D01*
X10171Y3756D01*
X10121Y3821D01*
X10056Y3871D01*
X9981Y3902D01*
X9900Y3913D01*
X9819Y3902D01*
X9744Y3871D01*
X9679Y3821D01*
X9629Y3756D01*
X9598Y3681D01*
X9587Y3600D01*
X9598Y3519D01*
X9629Y3444D01*
X9676Y3383D01*
X9679Y3376D01*
X9705Y3349D01*
X9749Y3300D01*
X9766Y3279D01*
X9779Y3260D01*
X9790Y3242D01*
X9798Y3228D01*
X9802Y3216D01*
X9804Y3207D01*
X9805Y3196D01*
X9808Y3190D01*
Y1460D01*
X9815Y1425D01*
X9835Y1395D01*
X11132Y98D01*
X11127Y70D01*
X11139Y8D01*
X11142Y4D01*
X11115Y-46D01*
X10642D01*
X10607Y-53D01*
X10577Y-73D01*
X8052Y-2598D01*
X4810D01*
X4775Y-2605D01*
X4745Y-2625D01*
X4125Y-3245D01*
X4119Y-3247D01*
X4110Y-3255D01*
X4103Y-3259D01*
X4091Y-3264D01*
X4075Y-3269D01*
X4055Y-3274D01*
X4033Y-3278D01*
X3939Y-3285D01*
X3902Y-3285D01*
X3895Y-3288D01*
X3819Y-3298D01*
X3744Y-3329D01*
X3679Y-3379D01*
X3629Y-3444D01*
X3598Y-3519D01*
X3587Y-3600D01*
X3598Y-3681D01*
X3629Y-3756D01*
X3679Y-3821D01*
X3744Y-3871D01*
X3819Y-3902D01*
X3900Y-3913D01*
X3981Y-3902D01*
X4056Y-3871D01*
X4121Y-3821D01*
X4171Y-3756D01*
X4202Y-3681D01*
X4212Y-3605D01*
X4215Y-3598D01*
X4215Y-3560D01*
X4219Y-3495D01*
X4222Y-3468D01*
X4226Y-3445D01*
X4231Y-3425D01*
X4236Y-3409D01*
X4241Y-3397D01*
X4245Y-3390D01*
X4253Y-3381D01*
X4254Y-3375D01*
X4848Y-2782D01*
X8057D01*
X8078Y-2832D01*
X7835Y-3075D01*
X7815Y-3105D01*
X7808Y-3140D01*
Y-3190D01*
X7805Y-3196D01*
X7804Y-3207D01*
X7802Y-3216D01*
X7798Y-3228D01*
X7790Y-3242D01*
X7779Y-3260D01*
X7767Y-3278D01*
X7705Y-3350D01*
X7679Y-3376D01*
X7676Y-3383D01*
X7629Y-3444D01*
X7598Y-3519D01*
X7592Y-3566D01*
X7542Y-3563D01*
Y-3320D01*
X7535Y-3285D01*
X7515Y-3255D01*
X7255Y-2995D01*
X7236Y-2983D01*
X7225Y-2975D01*
X7190Y-2968D01*
X6530D01*
X6495Y-2975D01*
X6465Y-2995D01*
X6174Y-3286D01*
X6172Y-3286D01*
X6169Y-3291D01*
X6163Y-3293D01*
X6154Y-3301D01*
X6146Y-3305D01*
X6137Y-3309D01*
X6124Y-3312D01*
X6109Y-3314D01*
X6090Y-3314D01*
X6068Y-3313D01*
X6013Y-3304D01*
X5982Y-3296D01*
X5974Y-3297D01*
X5900Y-3287D01*
X5819Y-3298D01*
X5744Y-3329D01*
X5679Y-3379D01*
X5629Y-3444D01*
X5598Y-3519D01*
X5587Y-3600D01*
X5598Y-3681D01*
X5629Y-3756D01*
X5679Y-3821D01*
X5744Y-3871D01*
X5786Y-3888D01*
X5776Y-3938D01*
X5368D01*
X5255Y-3825D01*
X5253Y-3819D01*
X5245Y-3810D01*
X5241Y-3803D01*
X5236Y-3791D01*
X5231Y-3775D01*
X5226Y-3755D01*
X5222Y-3733D01*
X5215Y-3639D01*
X5215Y-3602D01*
X5212Y-3595D01*
X5202Y-3519D01*
X5171Y-3444D01*
X5121Y-3379D01*
X5056Y-3329D01*
X4981Y-3298D01*
X4900Y-3287D01*
X4819Y-3298D01*
X4744Y-3329D01*
X4679Y-3379D01*
X4629Y-3444D01*
X4598Y-3519D01*
X4587Y-3600D01*
X4598Y-3681D01*
X4629Y-3756D01*
X4679Y-3821D01*
X4744Y-3871D01*
X4819Y-3902D01*
X4895Y-3912D01*
X4902Y-3915D01*
X4940Y-3915D01*
X5005Y-3919D01*
X5032Y-3922D01*
X5055Y-3926D01*
X5075Y-3931D01*
X5091Y-3936D01*
X5103Y-3941D01*
X5110Y-3945D01*
X5119Y-3953D01*
X5125Y-3954D01*
X5265Y-4095D01*
X5295Y-4115D01*
X5330Y-4122D01*
X6150D01*
X6185Y-4115D01*
X6215Y-4095D01*
X6435Y-3875D01*
X6455Y-3845D01*
X6462Y-3810D01*
Y-3508D01*
X6698Y-3272D01*
X6752D01*
X6762Y-3322D01*
X6744Y-3329D01*
X6679Y-3379D01*
X6629Y-3444D01*
X6598Y-3519D01*
X6587Y-3600D01*
X6598Y-3681D01*
X6629Y-3756D01*
X6679Y-3821D01*
X6744Y-3871D01*
X6819Y-3902D01*
X6900Y-3913D01*
X6981Y-3902D01*
X7056Y-3871D01*
X7121Y-3821D01*
X7171Y-3756D01*
X7188Y-3714D01*
X7238Y-3724D01*
Y-3790D01*
X7245Y-3825D01*
X7253Y-3836D01*
X7265Y-3855D01*
X7545Y-4135D01*
X7575Y-4155D01*
X7610Y-4162D01*
X8120D01*
X8155Y-4155D01*
X8185Y-4135D01*
X8465Y-3855D01*
X8485Y-3825D01*
X8492Y-3790D01*
Y-3241D01*
X8542Y-3226D01*
X8555Y-3245D01*
X8608Y-3281D01*
X8670Y-3293D01*
X8732Y-3281D01*
X8785Y-3245D01*
X8821Y-3192D01*
X8833Y-3130D01*
X8821Y-3068D01*
X8785Y-3015D01*
X8762Y-2999D01*
Y-2917D01*
X10157Y-1522D01*
X11793D01*
X11805Y-1567D01*
X11805Y-1567D01*
X11768Y-1579D01*
X11762Y-1583D01*
X11715Y-1615D01*
X11679Y-1668D01*
X11667Y-1730D01*
X11679Y-1792D01*
X11686Y-1803D01*
X11660Y-1853D01*
X10070D01*
X10033Y-1861D01*
X10002Y-1882D01*
X9222Y-2661D01*
X9200Y-2657D01*
X9138Y-2669D01*
X9085Y-2705D01*
X9049Y-2758D01*
X9037Y-2820D01*
X9049Y-2882D01*
X9085Y-2935D01*
X9138Y-2971D01*
X9200Y-2983D01*
X9262Y-2971D01*
X9315Y-2935D01*
X9373Y-2939D01*
X9385Y-2955D01*
X9387Y-2983D01*
X9046Y-3325D01*
X8981Y-3298D01*
X8900Y-3287D01*
X8819Y-3298D01*
X8744Y-3329D01*
X8679Y-3379D01*
X8629Y-3444D01*
X8598Y-3519D01*
X8587Y-3600D01*
X8598Y-3681D01*
X8629Y-3756D01*
X8679Y-3821D01*
X8744Y-3871D01*
X8819Y-3902D01*
X8900Y-3913D01*
X8981Y-3902D01*
X9056Y-3871D01*
X9121Y-3821D01*
X9171Y-3756D01*
X9202Y-3681D01*
X9213Y-3600D01*
X9202Y-3519D01*
X9175Y-3454D01*
X9508Y-3122D01*
X9579D01*
X9614Y-3115D01*
X9618Y-3112D01*
X10193D01*
X10212Y-3158D01*
X10046Y-3325D01*
X9981Y-3298D01*
X9900Y-3287D01*
X9819Y-3298D01*
X9744Y-3329D01*
X9679Y-3379D01*
X9629Y-3444D01*
X9598Y-3519D01*
X9587Y-3600D01*
X9598Y-3681D01*
X9629Y-3756D01*
X9679Y-3821D01*
X9744Y-3871D01*
X9803Y-3895D01*
Y-4040D01*
X9121Y-4722D01*
X4141D01*
X4104Y-4729D01*
X4073Y-4750D01*
X3948Y-4875D01*
X3927Y-4907D01*
X3919Y-4944D01*
Y-5084D01*
X3927Y-5121D01*
X3948Y-5152D01*
X4073Y-5277D01*
X4104Y-5298D01*
X4141Y-5306D01*
X4698D01*
X4700Y-5310D01*
X4747Y-5341D01*
X4801Y-5352D01*
X4856Y-5341D01*
X4902Y-5310D01*
X4933Y-5263D01*
X4944Y-5209D01*
X4938Y-5181D01*
X4973Y-5131D01*
X11466D01*
X11503Y-5123D01*
X11535Y-5102D01*
X12760Y-3877D01*
X12819Y-3902D01*
X12900Y-3913D01*
X12981Y-3902D01*
X13056Y-3871D01*
X13121Y-3821D01*
X13171Y-3756D01*
X13202Y-3681D01*
X13213Y-3600D01*
X13202Y-3519D01*
X13171Y-3444D01*
X13121Y-3379D01*
X13056Y-3329D01*
X12981Y-3298D01*
X12900Y-3287D01*
X12819Y-3298D01*
X12744Y-3329D01*
X12679Y-3379D01*
X12629Y-3444D01*
X12598Y-3519D01*
X12587Y-3600D01*
X12598Y-3681D01*
X12623Y-3740D01*
X11426Y-4937D01*
X9245D01*
X9230Y-4888D01*
X9230Y-4887D01*
X9969Y-4149D01*
X9990Y-4117D01*
X9997Y-4080D01*
Y-3895D01*
X10056Y-3871D01*
X10121Y-3821D01*
X10171Y-3756D01*
X10202Y-3681D01*
X10213Y-3600D01*
X10202Y-3519D01*
X10175Y-3454D01*
X10398Y-3232D01*
X14020D01*
X14055Y-3225D01*
X14085Y-3205D01*
X15395Y-1895D01*
X15415Y-1865D01*
X15422Y-1830D01*
Y80D01*
X15415Y115D01*
X15395Y145D01*
X15313Y226D01*
X15319Y254D01*
X15307Y317D01*
X15271Y370D01*
X15218Y405D01*
X15156Y417D01*
X15093Y405D01*
X15040Y370D01*
X15005Y317D01*
X14995Y265D01*
X14963Y249D01*
X14944Y246D01*
X14812Y378D01*
Y499D01*
X14835Y515D01*
X14871Y568D01*
X14883Y630D01*
X14871Y692D01*
X14835Y745D01*
X14782Y781D01*
X14720Y793D01*
X14658Y781D01*
X14605Y745D01*
X14569Y692D01*
X14557Y630D01*
X14569Y568D01*
X14605Y515D01*
X14628Y499D01*
Y340D01*
X14635Y305D01*
X14655Y275D01*
X14668Y262D01*
X14647Y212D01*
X13818D01*
X10992Y3038D01*
Y3190D01*
X10995Y3196D01*
X10996Y3207D01*
X10998Y3216D01*
X11002Y3228D01*
X11010Y3242D01*
X11021Y3260D01*
X11033Y3278D01*
X11095Y3350D01*
X11121Y3376D01*
X11124Y3383D01*
X11171Y3444D01*
X11202Y3519D01*
X11213Y3600D01*
X11202Y3681D01*
X11171Y3756D01*
X11121Y3821D01*
X11056Y3871D01*
X10981Y3902D01*
X10900Y3913D01*
D02*
G37*
G36*
X2550Y373D02*
X2488Y361D01*
X2435Y325D01*
X2399Y272D01*
X2387Y210D01*
X2399Y148D01*
X2435Y95D01*
X2488Y59D01*
X2550Y47D01*
X2612Y59D01*
X2658Y90D01*
X2666Y93D01*
X2671Y98D01*
X2675Y101D01*
X2678Y103D01*
X2681Y105D01*
X2685Y106D01*
X2688Y108D01*
X2691Y109D01*
X2695Y109D01*
X2699Y110D01*
X2706Y110D01*
X2713Y113D01*
X4400D01*
X4606Y-93D01*
X4609Y-100D01*
X4614Y-105D01*
X4616Y-109D01*
X4618Y-112D01*
X4620Y-115D01*
X4622Y-118D01*
X4623Y-121D01*
X4624Y-125D01*
X4624Y-129D01*
X4625Y-133D01*
X4625Y-141D01*
X4629Y-148D01*
X4639Y-202D01*
X4675Y-255D01*
X4700Y-272D01*
X4685Y-322D01*
X4499D01*
X4404Y-227D01*
X4372Y-206D01*
X4335Y-198D01*
X2628D01*
X2621Y-195D01*
X2614Y-195D01*
X2610Y-195D01*
X2607Y-194D01*
X2603Y-193D01*
X2600Y-192D01*
X2597Y-190D01*
X2593Y-188D01*
X2590Y-186D01*
X2587Y-183D01*
X2581Y-178D01*
X2573Y-175D01*
X2528Y-145D01*
X2465Y-132D01*
X2403Y-145D01*
X2350Y-180D01*
X2315Y-233D01*
X2302Y-295D01*
X2315Y-358D01*
X2350Y-411D01*
X2403Y-446D01*
X2465Y-458D01*
X2528Y-446D01*
X2573Y-415D01*
X2581Y-412D01*
X2587Y-407D01*
X2590Y-405D01*
X2593Y-402D01*
X2597Y-400D01*
X2600Y-399D01*
X2603Y-398D01*
X2607Y-397D01*
X2610Y-396D01*
X2614Y-395D01*
X2621Y-395D01*
X2628Y-392D01*
X4295D01*
X4391Y-488D01*
X4422Y-509D01*
X4459Y-516D01*
X4831D01*
X4868Y-509D01*
X4880Y-501D01*
X4899Y-488D01*
X5053Y-334D01*
X5060Y-331D01*
X5065Y-326D01*
X5069Y-324D01*
X5072Y-322D01*
X5075Y-320D01*
X5078Y-318D01*
X5081Y-317D01*
X5085Y-316D01*
X5089Y-316D01*
X5093Y-315D01*
X5101Y-315D01*
X5108Y-311D01*
X5162Y-301D01*
X5215Y-265D01*
X5251Y-212D01*
X5263Y-150D01*
X5251Y-88D01*
X5215Y-35D01*
X5162Y1D01*
X5100Y13D01*
X5038Y1D01*
X4985Y-35D01*
X4978Y-44D01*
X4918D01*
X4905Y-25D01*
X4852Y11D01*
X4798Y21D01*
X4791Y25D01*
X4783Y25D01*
X4779Y26D01*
X4775Y26D01*
X4771Y27D01*
X4768Y28D01*
X4765Y30D01*
X4762Y32D01*
X4759Y34D01*
X4755Y36D01*
X4750Y41D01*
X4743Y44D01*
X4509Y278D01*
X4477Y299D01*
X4440Y307D01*
X2713D01*
X2706Y310D01*
X2699Y310D01*
X2695Y311D01*
X2691Y311D01*
X2688Y312D01*
X2685Y314D01*
X2681Y315D01*
X2678Y317D01*
X2675Y319D01*
X2671Y322D01*
X2666Y327D01*
X2658Y330D01*
X2612Y361D01*
X2550Y373D01*
D02*
G37*
G36*
X2436Y-946D02*
X2362Y-961D01*
X2300Y-1002D01*
X2259Y-1064D01*
X2244Y-1138D01*
X2259Y-1211D01*
X2300Y-1273D01*
X2362Y-1315D01*
X2436Y-1329D01*
X2509Y-1315D01*
X2571Y-1273D01*
X2613Y-1211D01*
X2627Y-1138D01*
X2613Y-1064D01*
X2571Y-1002D01*
X2509Y-961D01*
X2436Y-946D01*
D02*
G37*
G36*
X13900Y-3287D02*
X13819Y-3298D01*
X13744Y-3329D01*
X13679Y-3379D01*
X13629Y-3444D01*
X13598Y-3519D01*
X13587Y-3600D01*
X13598Y-3681D01*
X13623Y-3740D01*
X11611Y-5752D01*
X4354D01*
X4351Y-5748D01*
X4305Y-5717D01*
X4250Y-5706D01*
X4195Y-5717D01*
X4149Y-5748D01*
X4118Y-5794D01*
X4107Y-5849D01*
X4118Y-5903D01*
X4149Y-5950D01*
X4195Y-5981D01*
X4250Y-5992D01*
X4305Y-5981D01*
X4351Y-5950D01*
X4354Y-5946D01*
X11651D01*
X11688Y-5938D01*
X11720Y-5917D01*
X13760Y-3877D01*
X13819Y-3902D01*
X13900Y-3913D01*
X13981Y-3902D01*
X14056Y-3871D01*
X14121Y-3821D01*
X14171Y-3756D01*
X14202Y-3681D01*
X14213Y-3600D01*
X14202Y-3519D01*
X14171Y-3444D01*
X14121Y-3379D01*
X14056Y-3329D01*
X13981Y-3298D01*
X13900Y-3287D01*
D02*
G37*
G36*
X11900D02*
X11819Y-3298D01*
X11744Y-3329D01*
X11679Y-3379D01*
X11629Y-3444D01*
X11598Y-3519D01*
X11587Y-3600D01*
X11598Y-3681D01*
X11629Y-3756D01*
X11679Y-3821D01*
X11744Y-3871D01*
X11819Y-3902D01*
X11900Y-3913D01*
X11981Y-3902D01*
X12056Y-3871D01*
X12121Y-3821D01*
X12171Y-3756D01*
X12202Y-3681D01*
X12213Y-3600D01*
X12202Y-3519D01*
X12171Y-3444D01*
X12121Y-3379D01*
X12056Y-3329D01*
X11981Y-3298D01*
X11900Y-3287D01*
D02*
G37*
G36*
X10900D02*
X10819Y-3298D01*
X10744Y-3329D01*
X10679Y-3379D01*
X10629Y-3444D01*
X10598Y-3519D01*
X10587Y-3600D01*
X10598Y-3681D01*
X10629Y-3756D01*
X10679Y-3821D01*
X10744Y-3871D01*
X10819Y-3902D01*
X10900Y-3913D01*
X10981Y-3902D01*
X11056Y-3871D01*
X11121Y-3821D01*
X11171Y-3756D01*
X11202Y-3681D01*
X11213Y-3600D01*
X11202Y-3519D01*
X11171Y-3444D01*
X11121Y-3379D01*
X11056Y-3329D01*
X10981Y-3298D01*
X10900Y-3287D01*
D02*
G37*
%LPD*%
G36*
X11047Y3394D02*
X10982Y3318D01*
X10966Y3295D01*
X10953Y3274D01*
X10943Y3254D01*
X10936Y3235D01*
X10931Y3218D01*
X10930Y3202D01*
X10870D01*
X10869Y3218D01*
X10864Y3235D01*
X10857Y3254D01*
X10847Y3274D01*
X10834Y3295D01*
X10818Y3318D01*
X10799Y3342D01*
X10753Y3394D01*
X10725Y3421D01*
X11075D01*
X11047Y3394D01*
D02*
G37*
G36*
X10047D02*
X9982Y3318D01*
X9966Y3295D01*
X9953Y3274D01*
X9943Y3254D01*
X9936Y3235D01*
X9931Y3218D01*
X9930Y3202D01*
X9870D01*
X9869Y3218D01*
X9864Y3235D01*
X9857Y3254D01*
X9847Y3274D01*
X9834Y3295D01*
X9818Y3318D01*
X9799Y3342D01*
X9753Y3394D01*
X9725Y3421D01*
X10075D01*
X10047Y3394D01*
D02*
G37*
G36*
X14878Y-388D02*
Y-813D01*
X14832Y-832D01*
X14725Y-725D01*
X14695Y-705D01*
X14660Y-698D01*
X14060D01*
X14025Y-705D01*
X13995Y-725D01*
X13622Y-1098D01*
X11978D01*
X11708Y-828D01*
X11713Y-800D01*
X11701Y-738D01*
X11665Y-685D01*
X11612Y-649D01*
X11550Y-637D01*
X11488Y-649D01*
X11435Y-685D01*
X11399Y-738D01*
X11387Y-800D01*
X11399Y-862D01*
X11435Y-915D01*
X11488Y-951D01*
X11550Y-963D01*
X11578Y-958D01*
X11792Y-1172D01*
X11773Y-1218D01*
X10186D01*
X10167Y-1172D01*
X10793Y-546D01*
X14422D01*
X14437Y-570D01*
X14490Y-605D01*
X14553Y-618D01*
X14615Y-605D01*
X14668Y-570D01*
X14703Y-517D01*
X14716Y-455D01*
X14703Y-392D01*
X14668Y-339D01*
X14615Y-304D01*
X14553Y-292D01*
X14520Y-298D01*
X14477Y-258D01*
X14465Y-195D01*
X14430Y-143D01*
X14428Y-142D01*
X14444Y-92D01*
X14582D01*
X14878Y-388D01*
D02*
G37*
G36*
X12588Y-1918D02*
Y-2272D01*
X12292Y-2568D01*
X10101D01*
X10085Y-2545D01*
X10036Y-2512D01*
X10028Y-2502D01*
X10016Y-2461D01*
X10235Y-2242D01*
X10831D01*
X10857Y-2268D01*
X10889Y-2289D01*
X10926Y-2297D01*
X11012D01*
X11025Y-2315D01*
X11078Y-2351D01*
X11140Y-2363D01*
X11202Y-2351D01*
X11255Y-2315D01*
X11291Y-2262D01*
X11303Y-2200D01*
X11291Y-2138D01*
X11264Y-2097D01*
X11279Y-2055D01*
X11286Y-2047D01*
X12163D01*
X12207Y-2080D01*
X12219Y-2142D01*
X12255Y-2195D01*
X12308Y-2231D01*
X12370Y-2243D01*
X12432Y-2231D01*
X12485Y-2195D01*
X12521Y-2142D01*
X12533Y-2080D01*
X12521Y-2018D01*
X12485Y-1965D01*
X12432Y-1929D01*
X12370Y-1917D01*
X12348Y-1921D01*
X12308Y-1882D01*
X12294Y-1872D01*
X12309Y-1822D01*
X12492D01*
X12588Y-1918D01*
D02*
G37*
G36*
X14030Y-1341D02*
X14045Y-1386D01*
X13925Y-1505D01*
X13913Y-1524D01*
X13905Y-1535D01*
Y-1535D01*
X13905Y-1535D01*
X13901Y-1555D01*
X13898Y-1570D01*
Y-1800D01*
X13905Y-1835D01*
X13925Y-1865D01*
X14215Y-2155D01*
X14245Y-2175D01*
X14280Y-2182D01*
X14613D01*
X14633Y-2228D01*
X13932Y-2928D01*
X9689D01*
X9656Y-2878D01*
X9663Y-2840D01*
X9659Y-2818D01*
X9771Y-2706D01*
X9812Y-2718D01*
X9822Y-2726D01*
X9855Y-2775D01*
X9908Y-2811D01*
X9970Y-2823D01*
X10032Y-2811D01*
X10085Y-2775D01*
X10101Y-2752D01*
X12330D01*
X12365Y-2745D01*
X12395Y-2725D01*
X12745Y-2375D01*
X12765Y-2345D01*
X12772Y-2310D01*
Y-1880D01*
X12765Y-1845D01*
X12745Y-1815D01*
X12595Y-1665D01*
X12565Y-1645D01*
X12530Y-1638D01*
X11961D01*
X11945Y-1615D01*
X11898Y-1583D01*
X11892Y-1579D01*
X11855Y-1567D01*
X11855Y-1567D01*
X11867Y-1522D01*
X13759D01*
X13795Y-1515D01*
X13824Y-1495D01*
X13981Y-1338D01*
X14030Y-1341D01*
D02*
G37*
G36*
X6236Y-3396D02*
X6229Y-3405D01*
X6221Y-3418D01*
X6213Y-3435D01*
X6204Y-3456D01*
X6185Y-3509D01*
X6154Y-3617D01*
X6142Y-3661D01*
X5966Y-3359D01*
X6000Y-3367D01*
X6061Y-3377D01*
X6088Y-3379D01*
X6113Y-3379D01*
X6136Y-3376D01*
X6157Y-3371D01*
X6175Y-3364D01*
X6191Y-3354D01*
X6205Y-3343D01*
X6236Y-3396D01*
D02*
G37*
G36*
X7931Y-3218D02*
X7936Y-3235D01*
X7943Y-3254D01*
X7953Y-3274D01*
X7966Y-3295D01*
X7982Y-3318D01*
X8001Y-3342D01*
X8047Y-3394D01*
X8075Y-3421D01*
X7725D01*
X7753Y-3394D01*
X7818Y-3318D01*
X7834Y-3295D01*
X7847Y-3274D01*
X7857Y-3254D01*
X7864Y-3235D01*
X7869Y-3218D01*
X7870Y-3202D01*
X7930D01*
X7931Y-3218D01*
D02*
G37*
G36*
X4203Y-3340D02*
X4192Y-3352D01*
X4183Y-3367D01*
X4175Y-3386D01*
X4168Y-3407D01*
X4162Y-3431D01*
X4157Y-3459D01*
X4154Y-3489D01*
X4150Y-3558D01*
X4150Y-3597D01*
X3902Y-3350D01*
X3942Y-3350D01*
X4041Y-3343D01*
X4068Y-3338D01*
X4093Y-3332D01*
X4114Y-3325D01*
X4132Y-3317D01*
X4148Y-3308D01*
X4160Y-3297D01*
X4203Y-3340D01*
D02*
G37*
G36*
X5150Y-3642D02*
X5157Y-3741D01*
X5162Y-3768D01*
X5168Y-3793D01*
X5175Y-3814D01*
X5183Y-3832D01*
X5192Y-3848D01*
X5203Y-3860D01*
X5160Y-3903D01*
X5148Y-3892D01*
X5132Y-3883D01*
X5114Y-3875D01*
X5093Y-3868D01*
X5068Y-3862D01*
X5041Y-3857D01*
X5011Y-3854D01*
X4942Y-3850D01*
X4902Y-3850D01*
X5150Y-3602D01*
X5150Y-3642D01*
D02*
G37*
G36*
X2628Y273D02*
X2636Y267D01*
X2643Y262D01*
X2651Y258D01*
X2659Y254D01*
X2668Y251D01*
X2676Y248D01*
X2685Y246D01*
X2694Y245D01*
X2704Y245D01*
Y175D01*
X2694Y175D01*
X2685Y174D01*
X2676Y172D01*
X2668Y169D01*
X2659Y166D01*
X2651Y162D01*
X2643Y158D01*
X2636Y153D01*
X2628Y147D01*
X2621Y140D01*
Y280D01*
X2628Y273D01*
D02*
G37*
G36*
X4713Y-13D02*
X4720Y-19D01*
X4728Y-24D01*
X4736Y-28D01*
X4744Y-32D01*
X4752Y-35D01*
X4761Y-37D01*
X4770Y-39D01*
X4779Y-40D01*
X4789Y-40D01*
X4690Y-139D01*
X4690Y-129D01*
X4689Y-120D01*
X4687Y-111D01*
X4685Y-102D01*
X4682Y-94D01*
X4678Y-86D01*
X4674Y-78D01*
X4669Y-70D01*
X4663Y-63D01*
X4657Y-56D01*
X4706Y-7D01*
X4713Y-13D01*
D02*
G37*
G36*
X5099Y-250D02*
X5089Y-250D01*
X5080Y-251D01*
X5071Y-253D01*
X5062Y-255D01*
X5054Y-258D01*
X5046Y-262D01*
X5038Y-266D01*
X5030Y-271D01*
X5023Y-277D01*
X5016Y-283D01*
X4967Y-234D01*
X4973Y-227D01*
X4979Y-220D01*
X4984Y-212D01*
X4988Y-204D01*
X4992Y-196D01*
X4995Y-188D01*
X4997Y-179D01*
X4999Y-170D01*
X5000Y-161D01*
X5000Y-151D01*
X5099Y-250D01*
D02*
G37*
G36*
X2544Y-232D02*
X2551Y-238D01*
X2558Y-243D01*
X2566Y-248D01*
X2574Y-252D01*
X2583Y-255D01*
X2591Y-257D01*
X2600Y-259D01*
X2609Y-260D01*
X2619Y-260D01*
Y-330D01*
X2609Y-331D01*
X2600Y-332D01*
X2591Y-333D01*
X2583Y-336D01*
X2574Y-339D01*
X2566Y-343D01*
X2558Y-347D01*
X2551Y-353D01*
X2544Y-359D01*
X2537Y-365D01*
Y-225D01*
X2544Y-232D01*
D02*
G37*
D15*
X17190Y-4553D02*
Y-3950D01*
X17170Y-3930D02*
X17190Y-3950D01*
X17480Y-3840D02*
Y-3370D01*
Y-3840D02*
X17660Y-4020D01*
X19040D01*
X17360Y-3890D02*
Y-3390D01*
Y-3890D02*
X17610Y-4140D01*
X16839Y-2869D02*
X17360Y-3390D01*
X9589Y-3020D02*
X13970D01*
X9579Y-3030D02*
X9589Y-3020D01*
X9470Y-3030D02*
X9579D01*
X8900Y-3600D02*
X9470Y-3030D01*
X9970Y-2660D02*
X12330D01*
X14585Y2055D02*
X14590Y2060D01*
X14560Y2030D02*
X14585Y2055D01*
X7450Y-3740D02*
Y-3420D01*
X13780Y120D02*
X14570D01*
X6430Y2420D02*
X6670Y2180D01*
X14996Y-3600D02*
X17747Y-848D01*
X14900Y-3600D02*
X14996D01*
X15320Y2060D02*
X15380Y2000D01*
X14590Y2060D02*
X15320D01*
X14560Y2030D02*
Y2080D01*
X9900Y1460D02*
X11290Y70D01*
X10642Y-138D02*
X13972D01*
X14110Y-0D01*
X8090Y-2690D02*
X10642Y-138D01*
X9900Y1460D02*
Y3600D01*
X14262Y-310D02*
X14314Y-258D01*
X10730Y-310D02*
X14262D01*
X7900Y-3140D02*
X10730Y-310D01*
X4810Y-2690D02*
X8090D01*
X15660Y2520D02*
X16570D01*
X17100Y1990D01*
X15640Y2500D02*
X15660Y2520D01*
X6430Y2420D02*
Y3820D01*
X6720Y4110D01*
X11120D02*
X11420Y3810D01*
X6720Y4110D02*
X11120D01*
X19360Y-3870D02*
Y-3360D01*
X18600Y-2600D02*
Y880D01*
X18480Y-2650D02*
Y-810D01*
X18600Y-2600D02*
X19360Y-3360D01*
X18480Y-2650D02*
X19240Y-3410D01*
Y-3820D02*
Y-3410D01*
X17850Y-550D02*
X18240Y-940D01*
X18120Y-2730D02*
Y-1574D01*
X17970Y-500D02*
X18360Y-890D01*
Y-3120D02*
X18840Y-3600D01*
X17480Y-3370D02*
X18120Y-2730D01*
X17986Y-1439D02*
X18120Y-1574D01*
X17900Y-3523D02*
X18240Y-3183D01*
X18100Y-430D02*
X18480Y-810D01*
X18360Y-3120D02*
Y-890D01*
X17900Y-3600D02*
Y-3523D01*
X16540Y2940D02*
X18600Y880D01*
X18240Y-3183D02*
Y-940D01*
X17986Y-1439D02*
Y-1439D01*
X14380Y910D02*
X14650Y1180D01*
X16901D02*
X17850Y231D01*
X14650Y1180D02*
X16901D01*
X14100Y970D02*
X14440Y1310D01*
X16941D02*
X17970Y281D01*
X14440Y1310D02*
X16941D01*
X8670Y-3130D02*
Y-2879D01*
X19040Y-4020D02*
X19240Y-3820D01*
X19090Y-4140D02*
X19360Y-3870D01*
X17290Y-2860D02*
X17520D01*
X17140Y-2710D02*
X17290Y-2860D01*
X17140Y-2710D02*
Y-2450D01*
X16940Y-2250D02*
X17140Y-2450D01*
X16760Y-2250D02*
X16940D01*
X15900Y-3600D02*
Y-2940D01*
X17401Y-1439D02*
X17986D01*
X16610Y-3070D02*
Y-2400D01*
X15900Y-2940D02*
X17401Y-1439D01*
X16610Y-2400D02*
X16760Y-2250D01*
X16450Y-3230D02*
X16610Y-3070D01*
X12560Y2940D02*
X16540D01*
X11900Y3600D02*
X12560Y2940D01*
X10900Y3000D02*
X13780Y120D01*
X10900Y3000D02*
Y3600D01*
X8400Y-2979D02*
X10069Y-1310D01*
X10755Y-455D02*
X14553D01*
X10119Y-1430D02*
X13759D01*
X8280Y-2929D02*
X10755Y-455D01*
X8400Y-3790D02*
Y-2979D01*
X8670Y-2879D02*
X10119Y-1430D01*
X7900Y-3600D02*
Y-3140D01*
X10069Y-1310D02*
X13710D01*
X8280Y-3741D02*
Y-2929D01*
X7190Y-3060D02*
X7450Y-3320D01*
X7140Y-3180D02*
X7330Y-3370D01*
X6370Y-3470D02*
X6660Y-3180D01*
X5990Y-3600D02*
X6530Y-3060D01*
X7190D01*
X6660Y-3180D02*
X7140D01*
X7330Y-3790D02*
Y-3370D01*
X7450Y-3420D02*
Y-3320D01*
X5900Y-3600D02*
X5990D01*
X6150Y-4030D02*
X6370Y-3810D01*
X4900Y-3600D02*
X5330Y-4030D01*
X6150D01*
X6370Y-3810D02*
Y-3470D01*
X7330Y-3790D02*
X7610Y-4070D01*
X8071Y-3950D02*
X8280Y-3741D01*
X7450Y-3740D02*
X7660Y-3950D01*
X8071D01*
X8120Y-4070D02*
X8400Y-3790D01*
X7610Y-4070D02*
X8120D01*
X10360Y-3140D02*
X14020D01*
X13970Y-3020D02*
X15210Y-1780D01*
X9900Y-3600D02*
X10360Y-3140D01*
X14020D02*
X15330Y-1830D01*
X15210Y-1780D02*
Y-150D01*
X15330Y-1830D02*
Y80D01*
X15090Y-1710D02*
Y-300D01*
X14710Y-2090D02*
X15090Y-1710D01*
X14280Y-2090D02*
X14710D01*
X13990Y-1570D02*
X14121Y-1439D01*
X13990Y-1800D02*
X14280Y-2090D01*
X13990Y-1800D02*
Y-1570D01*
X14727Y-1833D02*
X14970Y-1590D01*
Y-350D01*
X14553Y-1833D02*
X14727D01*
X14660Y-790D02*
X14850Y-980D01*
Y-1470D02*
Y-980D01*
X14060Y-790D02*
X14660D01*
X14670Y120D02*
X15090Y-300D01*
X14620Y-0D02*
X14970Y-350D01*
X14110Y-0D02*
X14620D01*
X14570Y120D02*
X14670D01*
X14100Y621D02*
Y970D01*
X15720Y2000D02*
X16590D01*
X18320Y-180D02*
Y270D01*
X17970Y-500D02*
Y281D01*
X15720Y1550D02*
X16870D01*
X16590Y2000D02*
X18320Y270D01*
X18100Y-430D02*
Y320D01*
X17850Y-550D02*
Y231D01*
X16870Y1550D02*
X18100Y320D01*
X16839Y-2869D02*
Y-2549D01*
X18840Y-3600D02*
X18900D01*
X11830Y-1730D02*
X12530D01*
X12680Y-1880D01*
Y-2310D02*
Y-1880D01*
X12330Y-2660D02*
X12680Y-2310D01*
X11420Y3220D02*
Y3810D01*
Y3220D02*
X11900Y2740D01*
X13370D01*
X14940D01*
X15350Y2330D01*
X14670Y1550D02*
X15380D01*
X14720Y340D02*
X15210Y-150D01*
X14720Y340D02*
Y630D01*
X11550Y-800D02*
X11940Y-1190D01*
X13660D01*
X13710Y-1310D02*
X13974Y-1045D01*
X13759Y-1430D02*
X13947Y-1242D01*
X13660Y-1190D02*
X14060Y-790D01*
X13947Y-1242D02*
X14314D01*
X13974Y-1045D02*
X14553D01*
X15156Y254D02*
X15330Y80D01*
X14684Y-1636D02*
X14850Y-1470D01*
X14314Y-1636D02*
X14684D01*
X17610Y-4140D02*
X19090D01*
X14121Y-1439D02*
X14553D01*
X14100Y621D02*
X14100Y620D01*
X3900Y-3600D02*
X4810Y-2690D01*
D59*
X10195Y-2145D02*
X10871D01*
X10926Y-2200D01*
X11140D01*
X9500Y-2840D02*
X10195Y-2145D01*
X9200Y-2820D02*
X10070Y-1950D01*
X12240D02*
X12370Y-2080D01*
X10070Y-1950D02*
X12240D01*
X11651Y-5849D02*
X13900Y-3600D01*
X4250Y-5849D02*
X11651D01*
X16900Y-5398D02*
Y-3600D01*
X9900Y-4080D02*
Y-3600D01*
X9161Y-4819D02*
X9900Y-4080D01*
X4141Y-4819D02*
X9161D01*
X4016Y-4944D02*
X4141Y-4819D01*
X4016Y-5084D02*
Y-4944D01*
Y-5084D02*
X4141Y-5209D01*
X4801D01*
X4216Y-5034D02*
X11466D01*
X12900Y-3600D01*
X4831Y-419D02*
X5100Y-150D01*
X4459Y-419D02*
X4831D01*
X4335Y-295D02*
X4459Y-419D01*
X2465Y-295D02*
X4335D01*
X4440Y210D02*
X4790Y-140D01*
X2550Y210D02*
X4440D01*
D60*
X7900Y2780D02*
Y3600D01*
X6685Y1565D02*
X7900Y2780D01*
X5445Y1565D02*
X6685D01*
X4790Y910D02*
X5445Y1565D01*
D62*
X6900Y-3600D02*
D03*
X10900Y3600D02*
D03*
X9900D02*
D03*
X15900D02*
D03*
X14900D02*
D03*
X16900D02*
D03*
X18900D02*
D03*
X17900D02*
D03*
X13900D02*
D03*
X11900D02*
D03*
X12900D02*
D03*
X7900D02*
D03*
X8900D02*
D03*
X10900Y-3600D02*
D03*
X9900D02*
D03*
X15900D02*
D03*
X14900D02*
D03*
X16900D02*
D03*
X18900D02*
D03*
X17900D02*
D03*
X13900D02*
D03*
X11900D02*
D03*
X12900D02*
D03*
X7900D02*
D03*
X8900D02*
D03*
X5900D02*
D03*
X4900D02*
D03*
X2900D02*
D03*
X3900D02*
D03*
X1900D02*
D03*
D63*
X750Y3550D02*
D03*
X790Y-9930D02*
D03*
X19960Y-9910D02*
D03*
X20050Y3550D02*
D03*
D64*
X2633Y1703D02*
D03*
Y-1703D02*
D03*
D65*
X1058Y1703D02*
D03*
Y-1703D02*
D03*
D66*
X2436Y-1138D02*
D03*
Y1138D02*
D03*
D67*
X17190Y-4553D02*
D03*
X17170Y-3930D02*
D03*
X9500Y-2840D02*
D03*
X9200Y-2820D02*
D03*
X9300Y-3710D02*
D03*
X11140Y-2200D02*
D03*
X9970Y-2660D02*
D03*
X6670Y2180D02*
D03*
X6510Y1800D02*
D03*
X14560Y2080D02*
D03*
X11290Y70D02*
D03*
X11560Y4030D02*
D03*
X12170D02*
D03*
X13010Y3160D02*
D03*
X12640Y3190D02*
D03*
X8560Y-4020D02*
D03*
X6440Y-2140D02*
D03*
X6570Y-2420D02*
D03*
X13090Y-2500D02*
D03*
X15156Y254D02*
D03*
X18320Y-180D02*
D03*
X14553Y-1439D02*
D03*
X17100Y1990D02*
D03*
X17986Y-1439D02*
D03*
X17747Y-848D02*
D03*
X14314Y-1636D02*
D03*
X14720Y630D02*
D03*
X16839Y-2549D02*
D03*
X17520Y-2860D02*
D03*
X14100Y620D02*
D03*
X14553Y-1833D02*
D03*
X14380Y910D02*
D03*
X14314Y-1242D02*
D03*
X14553Y-1045D02*
D03*
Y-455D02*
D03*
X14314Y-258D02*
D03*
X4410Y3030D02*
D03*
X6060Y4000D02*
D03*
X5570Y3630D02*
D03*
X20300Y-2300D02*
D03*
X20000D02*
D03*
X19700D02*
D03*
X19400D02*
D03*
X19100D02*
D03*
X18800D02*
D03*
Y-2000D02*
D03*
Y-1700D02*
D03*
Y-1400D02*
D03*
Y-1100D02*
D03*
Y-800D02*
D03*
Y-500D02*
D03*
Y-200D02*
D03*
Y100D02*
D03*
Y400D02*
D03*
Y700D02*
D03*
X18700Y1400D02*
D03*
Y1700D02*
D03*
Y2000D02*
D03*
Y2300D02*
D03*
X19000D02*
D03*
X19300D02*
D03*
X19600D02*
D03*
X19900D02*
D03*
X20200D02*
D03*
X20500D02*
D03*
X10190Y2980D02*
D03*
X10360Y2280D02*
D03*
Y2670D02*
D03*
X13230Y-1680D02*
D03*
X10450Y-2350D02*
D03*
X10790Y-2340D02*
D03*
X15140Y-2480D02*
D03*
X11950Y-750D02*
D03*
X12510D02*
D03*
X13280Y-770D02*
D03*
X13770Y-720D02*
D03*
X13640Y-2450D02*
D03*
X14240Y-2340D02*
D03*
X10210Y-4030D02*
D03*
X9290Y-3980D02*
D03*
X15500Y950D02*
D03*
X12600Y2450D02*
D03*
X12200D02*
D03*
X11800D02*
D03*
X11550Y2700D02*
D03*
X4290Y2080D02*
D03*
X3800Y1250D02*
D03*
Y1750D02*
D03*
X5650Y1100D02*
D03*
X6600Y-500D02*
D03*
Y-50D02*
D03*
X6100Y100D02*
D03*
X4900Y-1700D02*
D03*
X5300Y-1300D02*
D03*
Y-1700D02*
D03*
X4900Y-1300D02*
D03*
X16650Y-1200D02*
D03*
Y-750D02*
D03*
Y-300D02*
D03*
X16150Y-1200D02*
D03*
Y-750D02*
D03*
Y-300D02*
D03*
X15650Y-1200D02*
D03*
Y-750D02*
D03*
Y-300D02*
D03*
X7150Y800D02*
D03*
X7100Y1150D02*
D03*
X7450Y-50D02*
D03*
X8900Y-0D02*
D03*
X8450D02*
D03*
X8750Y-550D02*
D03*
X8300D02*
D03*
X8350Y-1700D02*
D03*
X8800Y-1400D02*
D03*
X8350D02*
D03*
X8670Y-3130D02*
D03*
X16450Y-3230D02*
D03*
X11830Y-1730D02*
D03*
X12370Y-2080D02*
D03*
X15350Y2330D02*
D03*
X15640Y2500D02*
D03*
X14670Y1550D02*
D03*
X13370Y2740D02*
D03*
X11550Y-800D02*
D03*
X4790Y910D02*
D03*
X2465Y-295D02*
D03*
X2550Y210D02*
D03*
X5100Y-150D02*
D03*
X4790Y-140D02*
D03*
D68*
X4440Y-6940D02*
D03*
X17538Y-7520D02*
D03*
D69*
X4250Y-5849D02*
D03*
X16900Y-5398D02*
D03*
X4801Y-5209D02*
D03*
X4216Y-5034D02*
D03*
D70*
X11170Y2270D02*
D03*
D71*
X15380Y1550D02*
D03*
X15720D02*
D03*
X15380Y2000D02*
D03*
X15720D02*
D03*
M02*
