G04*
G04 #@! TF.GenerationSoftware,Altium Limited,Altium Designer,19.0.4 (130)*
G04*
G04 Layer_Color=8388736*
%FSLAX24Y24*%
%MOIN*%
G70*
G01*
G75*
G36*
X6630Y-6182D02*
X6639Y-6184D01*
X6643Y-6186D01*
X6648Y-6188D01*
X6652Y-6191D01*
X6654Y-6194D01*
X6658Y-6198D01*
X6661Y-6202D01*
X6662Y-6205D01*
X6664Y-6210D01*
X6665Y-6213D01*
X6665Y-6219D01*
X6665Y-6369D01*
X6853Y-6369D01*
X6814Y-6450D01*
X6666Y-6450D01*
X6666Y-6660D01*
X6659Y-6747D01*
X6666Y-6660D01*
X6812Y-6454D01*
X6853Y-6370D01*
X6891Y-6369D01*
X6899Y-6370D01*
X6907Y-6372D01*
X6912Y-6374D01*
X6917Y-6377D01*
X6923Y-6382D01*
X6927Y-6387D01*
X6930Y-6394D01*
X6933Y-6401D01*
X6934Y-6409D01*
X6933Y-6417D01*
X6931Y-6424D01*
X6928Y-6430D01*
X6672Y-6790D01*
X6654Y-6813D01*
X6654Y-6814D01*
X6654Y-6814D01*
X6645Y-6821D01*
X6640Y-6823D01*
X6634Y-6825D01*
X6628Y-6825D01*
X6620Y-6825D01*
X6613Y-6824D01*
X6608Y-6822D01*
X6604Y-6819D01*
X6600Y-6817D01*
X6595Y-6812D01*
X6593Y-6808D01*
X6589Y-6802D01*
X6586Y-6791D01*
X6586Y-6450D01*
X6490Y-6449D01*
X6486Y-6449D01*
X6475Y-6446D01*
X6469Y-6443D01*
X6464Y-6439D01*
X6460Y-6435D01*
X6457Y-6431D01*
X6453Y-6422D01*
X6451Y-6412D01*
X6451Y-6404D01*
X6453Y-6396D01*
X6457Y-6388D01*
X6460Y-6384D01*
X6464Y-6380D01*
X6469Y-6376D01*
X6474Y-6373D01*
X6480Y-6371D01*
X6483Y-6370D01*
X6489Y-6370D01*
X6585Y-6370D01*
X6586Y-6220D01*
X6586Y-6214D01*
X6589Y-6207D01*
X6592Y-6200D01*
X6595Y-6196D01*
X6600Y-6191D01*
X6605Y-6187D01*
X6613Y-6184D01*
X6617Y-6182D01*
X6622Y-6182D01*
X6630Y-6182D01*
D02*
G37*
G36*
X9691Y-6204D02*
X9694Y-6205D01*
X9698Y-6207D01*
X9702Y-6209D01*
X9707Y-6212D01*
X9710Y-6216D01*
X9713Y-6219D01*
X9717Y-6224D01*
X9719Y-6230D01*
X9720Y-6235D01*
X9721Y-6241D01*
X9721Y-6710D01*
X9736Y-6696D01*
X9741Y-6692D01*
X9802Y-6662D01*
X9807Y-6661D01*
X9813Y-6660D01*
X9819Y-6660D01*
X9823Y-6661D01*
X9827Y-6662D01*
X9830Y-6663D01*
X9835Y-6665D01*
X9839Y-6668D01*
X9844Y-6672D01*
X9847Y-6676D01*
X9850Y-6680D01*
X9853Y-6685D01*
X9854Y-6691D01*
X9855Y-6696D01*
Y-6701D01*
X9855Y-6706D01*
X9854Y-6711D01*
X9852Y-6716D01*
X9849Y-6722D01*
X9846Y-6725D01*
X9844Y-6728D01*
X9840Y-6731D01*
X9832Y-6736D01*
X9785Y-6760D01*
X9705Y-6838D01*
Y-6838D01*
X9699Y-6843D01*
X9693Y-6845D01*
X9686Y-6847D01*
X9678Y-6847D01*
X9671Y-6846D01*
X9667Y-6844D01*
X9662Y-6842D01*
X9657Y-6839D01*
X9653Y-6835D01*
X9648Y-6830D01*
X9644Y-6822D01*
X9641Y-6814D01*
X9641Y-6254D01*
X9641Y-6238D01*
X9644Y-6229D01*
X9648Y-6221D01*
X9651Y-6217D01*
X9656Y-6212D01*
X9663Y-6207D01*
X9669Y-6205D01*
X9678Y-6203D01*
X9685D01*
X9691Y-6204D01*
D02*
G37*
G36*
X12070Y-6062D02*
X12079Y-6064D01*
X12083Y-6066D01*
X12088Y-6068D01*
X12092Y-6071D01*
X12094Y-6074D01*
X12098Y-6078D01*
X12101Y-6082D01*
X12102Y-6085D01*
X12104Y-6090D01*
X12105Y-6093D01*
X12105Y-6099D01*
X12105Y-6249D01*
X12293Y-6249D01*
X12254Y-6330D01*
X12106Y-6330D01*
X12106Y-6540D01*
X12099Y-6627D01*
X12106Y-6540D01*
X12252Y-6334D01*
X12293Y-6250D01*
X12331Y-6249D01*
X12339Y-6250D01*
X12347Y-6252D01*
X12352Y-6254D01*
X12357Y-6257D01*
X12363Y-6262D01*
X12367Y-6267D01*
X12370Y-6274D01*
X12373Y-6281D01*
X12374Y-6289D01*
X12373Y-6297D01*
X12371Y-6304D01*
X12368Y-6310D01*
X12112Y-6670D01*
X12094Y-6693D01*
X12094Y-6694D01*
X12094Y-6694D01*
X12085Y-6701D01*
X12080Y-6703D01*
X12074Y-6705D01*
X12068Y-6705D01*
X12060Y-6705D01*
X12053Y-6704D01*
X12048Y-6702D01*
X12044Y-6699D01*
X12040Y-6697D01*
X12035Y-6692D01*
X12033Y-6688D01*
X12029Y-6682D01*
X12026Y-6671D01*
X12026Y-6330D01*
X11930Y-6330D01*
X11926Y-6329D01*
X11915Y-6326D01*
X11909Y-6323D01*
X11904Y-6319D01*
X11900Y-6315D01*
X11897Y-6310D01*
X11893Y-6302D01*
X11891Y-6292D01*
X11891Y-6284D01*
X11893Y-6276D01*
X11897Y-6267D01*
X11900Y-6264D01*
X11904Y-6260D01*
X11909Y-6256D01*
X11914Y-6253D01*
X11920Y-6251D01*
X11923Y-6250D01*
X11929Y-6250D01*
X12025Y-6250D01*
X12026Y-6100D01*
X12026Y-6094D01*
X12029Y-6087D01*
X12032Y-6080D01*
X12035Y-6076D01*
X12040Y-6071D01*
X12045Y-6067D01*
X12053Y-6064D01*
X12057Y-6062D01*
X12062Y-6062D01*
X12070Y-6062D01*
D02*
G37*
G36*
X15145Y-6718D02*
X15225Y-6640D01*
X15272Y-6616D01*
X15280Y-6611D01*
X15284Y-6608D01*
X15286Y-6605D01*
X15289Y-6602D01*
X15292Y-6596D01*
X15294Y-6591D01*
X15295Y-6586D01*
X15295Y-6581D01*
Y-6576D01*
X15294Y-6571D01*
X15293Y-6565D01*
X15290Y-6560D01*
X15287Y-6556D01*
X15284Y-6552D01*
X15279Y-6548D01*
X15275Y-6545D01*
X15270Y-6543D01*
X15267Y-6542D01*
X15263Y-6541D01*
X15259Y-6540D01*
X15253Y-6540D01*
X15247Y-6541D01*
X15242Y-6542D01*
X15181Y-6572D01*
X15176Y-6576D01*
X15161Y-6590D01*
X15161Y-6121D01*
X15160Y-6115D01*
X15159Y-6110D01*
X15157Y-6104D01*
X15153Y-6099D01*
X15150Y-6096D01*
X15147Y-6092D01*
X15142Y-6089D01*
X15138Y-6087D01*
X15134Y-6085D01*
X15131Y-6084D01*
X15125Y-6083D01*
X15118D01*
X15109Y-6085D01*
X15103Y-6087D01*
X15096Y-6092D01*
X15091Y-6097D01*
X15088Y-6101D01*
X15084Y-6109D01*
X15081Y-6118D01*
X15081Y-6134D01*
X15081Y-6694D01*
X15084Y-6702D01*
X15088Y-6710D01*
X15093Y-6715D01*
X15097Y-6719D01*
X15102Y-6722D01*
X15107Y-6724D01*
X15112Y-6726D01*
X15118Y-6727D01*
X15127Y-6727D01*
X15134Y-6725D01*
X15139Y-6723D01*
X15145Y-6718D01*
Y-6718D01*
D01*
D02*
G37*
M02*
