G04*
G04 #@! TF.GenerationSoftware,Altium Limited,Altium Designer,19.0.4 (130)*
G04*
G04 Layer_Color=128*
%FSLAX24Y24*%
%MOIN*%
G70*
G01*
G75*
%ADD75C,0.0020*%
D75*
X6740Y-3600D02*
X7060D01*
X6900Y-3760D02*
Y-3440D01*
X10740Y3600D02*
X11060D01*
X10900Y3440D02*
Y3760D01*
X9740Y3600D02*
X10060D01*
X9900Y3440D02*
Y3760D01*
X15740Y3600D02*
X16060D01*
X15900Y3440D02*
Y3760D01*
X14740Y3600D02*
X15060D01*
X14900Y3440D02*
Y3760D01*
X16740Y3600D02*
X17060D01*
X16900Y3440D02*
Y3760D01*
X18740Y3600D02*
X19060D01*
X18900Y3440D02*
Y3760D01*
X17740Y3600D02*
X18060D01*
X17900Y3440D02*
Y3760D01*
X13740Y3600D02*
X14060D01*
X13900Y3440D02*
Y3760D01*
X11740Y3600D02*
X12060D01*
X11900Y3440D02*
Y3760D01*
X12740Y3600D02*
X13060D01*
X12900Y3440D02*
Y3760D01*
X7740Y3600D02*
X8060D01*
X7900Y3440D02*
Y3760D01*
X8740Y3600D02*
X9060D01*
X8900Y3440D02*
Y3760D01*
X356Y3550D02*
X1144D01*
X750Y3156D02*
Y3944D01*
X396Y-9930D02*
X1184D01*
X790Y-10324D02*
Y-9536D01*
X19566Y-9910D02*
X20354D01*
X19960Y-10304D02*
Y-9516D01*
X19656Y3550D02*
X20444D01*
X20050Y3156D02*
Y3944D01*
X2515Y1703D02*
X2751D01*
X2633Y1585D02*
Y1821D01*
X2515Y-1703D02*
X2751D01*
X2633Y-1821D02*
Y-1585D01*
X940Y1703D02*
X1176D01*
X1058Y1585D02*
Y1821D01*
X940Y-1703D02*
X1176D01*
X1058Y-1821D02*
Y-1585D01*
X2308Y-1138D02*
X2564D01*
X2436Y-1266D02*
Y-1010D01*
X2308Y1138D02*
X2564D01*
X2436Y1010D02*
Y1266D01*
X10740Y-3600D02*
X11060D01*
X10900Y-3760D02*
Y-3440D01*
X9740Y-3600D02*
X10060D01*
X9900Y-3760D02*
Y-3440D01*
X15740Y-3600D02*
X16060D01*
X15900Y-3760D02*
Y-3440D01*
X14740Y-3600D02*
X15060D01*
X14900Y-3760D02*
Y-3440D01*
X16740Y-3600D02*
X17060D01*
X16900Y-3760D02*
Y-3440D01*
X18740Y-3600D02*
X19060D01*
X18900Y-3760D02*
Y-3440D01*
X17740Y-3600D02*
X18060D01*
X17900Y-3760D02*
Y-3440D01*
X13740Y-3600D02*
X14060D01*
X13900Y-3760D02*
Y-3440D01*
X11740Y-3600D02*
X12060D01*
X11900Y-3760D02*
Y-3440D01*
X12740Y-3600D02*
X13060D01*
X12900Y-3760D02*
Y-3440D01*
X7740Y-3600D02*
X8060D01*
X7900Y-3760D02*
Y-3440D01*
X8740Y-3600D02*
X9060D01*
X8900Y-3760D02*
Y-3440D01*
X5740Y-3600D02*
X6060D01*
X5900Y-3760D02*
Y-3440D01*
X4740Y-3600D02*
X5060D01*
X4900Y-3760D02*
Y-3440D01*
X2740Y-3600D02*
X3060D01*
X2900Y-3760D02*
Y-3440D01*
X3740Y-3600D02*
X4060D01*
X3900Y-3760D02*
Y-3440D01*
X1740Y-3600D02*
X2060D01*
X1900Y-3760D02*
Y-3440D01*
X17140Y-4553D02*
X17240D01*
X17190Y-4603D02*
Y-4503D01*
X17120Y-3930D02*
X17220D01*
X17170Y-3980D02*
Y-3880D01*
X4380Y-6940D02*
X4500D01*
X4440Y-7000D02*
Y-6880D01*
X17478Y-7520D02*
X17598D01*
X17538Y-7580D02*
Y-7460D01*
X9450Y-2840D02*
X9550D01*
X9500Y-2890D02*
Y-2790D01*
X9150Y-2820D02*
X9250D01*
X9200Y-2870D02*
Y-2770D01*
X9250Y-3710D02*
X9350D01*
X9300Y-3760D02*
Y-3660D01*
X11090Y-2200D02*
X11190D01*
X11140Y-2250D02*
Y-2150D01*
X9920Y-2660D02*
X10020D01*
X9970Y-2710D02*
Y-2610D01*
X4210Y-5849D02*
X4290D01*
X4250Y-5889D02*
Y-5809D01*
X16860Y-5398D02*
X16940D01*
X16900Y-5438D02*
Y-5358D01*
X4761Y-5209D02*
X4841D01*
X4801Y-5249D02*
Y-5169D01*
X4176Y-5034D02*
X4256D01*
X4216Y-5074D02*
Y-4994D01*
X6620Y2180D02*
X6720D01*
X6670Y2130D02*
Y2230D01*
X6460Y1800D02*
X6560D01*
X6510Y1750D02*
Y1850D01*
X14510Y2080D02*
X14610D01*
X14560Y2030D02*
Y2130D01*
X11240Y70D02*
X11340D01*
X11290Y20D02*
Y120D01*
X11120Y2270D02*
X11220D01*
X11170Y2220D02*
Y2320D01*
X11510Y4030D02*
X11610D01*
X11560Y3980D02*
Y4080D01*
X12120Y4030D02*
X12220D01*
X12170Y3980D02*
Y4080D01*
X12960Y3160D02*
X13060D01*
X13010Y3110D02*
Y3210D01*
X12590Y3190D02*
X12690D01*
X12640Y3140D02*
Y3240D01*
X8510Y-4020D02*
X8610D01*
X8560Y-4070D02*
Y-3970D01*
X6390Y-2140D02*
X6490D01*
X6440Y-2190D02*
Y-2090D01*
X6520Y-2420D02*
X6620D01*
X6570Y-2470D02*
Y-2370D01*
X13040Y-2500D02*
X13140D01*
X13090Y-2550D02*
Y-2450D01*
X15106Y254D02*
X15206D01*
X15156Y204D02*
Y304D01*
X18270Y-180D02*
X18370D01*
X18320Y-230D02*
Y-130D01*
X14503Y-1439D02*
X14603D01*
X14553Y-1489D02*
Y-1389D01*
X17050Y1990D02*
X17150D01*
X17100Y1940D02*
Y2040D01*
X17936Y-1439D02*
X18036D01*
X17986Y-1489D02*
Y-1389D01*
X17697Y-848D02*
X17797D01*
X17747Y-898D02*
Y-798D01*
X14264Y-1636D02*
X14364D01*
X14314Y-1686D02*
Y-1586D01*
X14670Y630D02*
X14770D01*
X14720Y580D02*
Y680D01*
X16789Y-2549D02*
X16889D01*
X16839Y-2599D02*
Y-2499D01*
X17470Y-2860D02*
X17570D01*
X17520Y-2910D02*
Y-2810D01*
X14050Y620D02*
X14150D01*
X14100Y570D02*
Y670D01*
X14503Y-1833D02*
X14603D01*
X14553Y-1883D02*
Y-1783D01*
X14330Y910D02*
X14430D01*
X14380Y860D02*
Y960D01*
X14264Y-1242D02*
X14364D01*
X14314Y-1292D02*
Y-1192D01*
X14503Y-1045D02*
X14603D01*
X14553Y-1095D02*
Y-995D01*
X14503Y-455D02*
X14603D01*
X14553Y-505D02*
Y-405D01*
X14264Y-258D02*
X14364D01*
X14314Y-308D02*
Y-208D01*
X4360Y3030D02*
X4460D01*
X4410Y2980D02*
Y3080D01*
X6010Y4000D02*
X6110D01*
X6060Y3950D02*
Y4050D01*
X5520Y3630D02*
X5620D01*
X5570Y3580D02*
Y3680D01*
X20250Y-2300D02*
X20350D01*
X20300Y-2350D02*
Y-2250D01*
X19950Y-2300D02*
X20050D01*
X20000Y-2350D02*
Y-2250D01*
X19650Y-2300D02*
X19750D01*
X19700Y-2350D02*
Y-2250D01*
X19350Y-2300D02*
X19450D01*
X19400Y-2350D02*
Y-2250D01*
X19050Y-2300D02*
X19150D01*
X19100Y-2350D02*
Y-2250D01*
X18750Y-2300D02*
X18850D01*
X18800Y-2350D02*
Y-2250D01*
X18750Y-2000D02*
X18850D01*
X18800Y-2050D02*
Y-1950D01*
X18750Y-1700D02*
X18850D01*
X18800Y-1750D02*
Y-1650D01*
X18750Y-1400D02*
X18850D01*
X18800Y-1450D02*
Y-1350D01*
X18750Y-1100D02*
X18850D01*
X18800Y-1150D02*
Y-1050D01*
X18750Y-800D02*
X18850D01*
X18800Y-850D02*
Y-750D01*
X18750Y-500D02*
X18850D01*
X18800Y-550D02*
Y-450D01*
X18750Y-200D02*
X18850D01*
X18800Y-250D02*
Y-150D01*
X18750Y100D02*
X18850D01*
X18800Y50D02*
Y150D01*
X18750Y400D02*
X18850D01*
X18800Y350D02*
Y450D01*
X18750Y700D02*
X18850D01*
X18800Y650D02*
Y750D01*
X18650Y1400D02*
X18750D01*
X18700Y1350D02*
Y1450D01*
X18650Y1700D02*
X18750D01*
X18700Y1650D02*
Y1750D01*
X18650Y2000D02*
X18750D01*
X18700Y1950D02*
Y2050D01*
X18650Y2300D02*
X18750D01*
X18700Y2250D02*
Y2350D01*
X18950Y2300D02*
X19050D01*
X19000Y2250D02*
Y2350D01*
X19250Y2300D02*
X19350D01*
X19300Y2250D02*
Y2350D01*
X19550Y2300D02*
X19650D01*
X19600Y2250D02*
Y2350D01*
X19850Y2300D02*
X19950D01*
X19900Y2250D02*
Y2350D01*
X20150Y2300D02*
X20250D01*
X20200Y2250D02*
Y2350D01*
X20450Y2300D02*
X20550D01*
X20500Y2250D02*
Y2350D01*
X10140Y2980D02*
X10240D01*
X10190Y2930D02*
Y3030D01*
X10310Y2280D02*
X10410D01*
X10360Y2230D02*
Y2330D01*
X10310Y2670D02*
X10410D01*
X10360Y2620D02*
Y2720D01*
X13180Y-1680D02*
X13280D01*
X13230Y-1730D02*
Y-1630D01*
X10400Y-2350D02*
X10500D01*
X10450Y-2400D02*
Y-2300D01*
X10740Y-2340D02*
X10840D01*
X10790Y-2390D02*
Y-2290D01*
X15090Y-2480D02*
X15190D01*
X15140Y-2530D02*
Y-2430D01*
X11900Y-750D02*
X12000D01*
X11950Y-800D02*
Y-700D01*
X12460Y-750D02*
X12560D01*
X12510Y-800D02*
Y-700D01*
X13230Y-770D02*
X13330D01*
X13280Y-820D02*
Y-720D01*
X13720D02*
X13820D01*
X13770Y-770D02*
Y-670D01*
X13590Y-2450D02*
X13690D01*
X13640Y-2500D02*
Y-2400D01*
X14190Y-2340D02*
X14290D01*
X14240Y-2390D02*
Y-2290D01*
X10160Y-4030D02*
X10260D01*
X10210Y-4080D02*
Y-3980D01*
X9240Y-3980D02*
X9340D01*
X9290Y-4030D02*
Y-3930D01*
X15450Y950D02*
X15550D01*
X15500Y900D02*
Y1000D01*
X12550Y2450D02*
X12650D01*
X12600Y2400D02*
Y2500D01*
X12150Y2450D02*
X12250D01*
X12200Y2400D02*
Y2500D01*
X11750Y2450D02*
X11850D01*
X11800Y2400D02*
Y2500D01*
X11500Y2700D02*
X11600D01*
X11550Y2650D02*
Y2750D01*
X4240Y2080D02*
X4340D01*
X4290Y2030D02*
Y2130D01*
X3750Y1250D02*
X3850D01*
X3800Y1200D02*
Y1300D01*
X3750Y1750D02*
X3850D01*
X3800Y1700D02*
Y1800D01*
X5600Y1100D02*
X5700D01*
X5650Y1050D02*
Y1150D01*
X6550Y-500D02*
X6650D01*
X6600Y-550D02*
Y-450D01*
X6550Y-50D02*
X6650D01*
X6600Y-100D02*
Y-0D01*
X6050Y100D02*
X6150D01*
X6100Y50D02*
Y150D01*
X4850Y-1700D02*
X4950D01*
X4900Y-1750D02*
Y-1650D01*
X5250Y-1300D02*
X5350D01*
X5300Y-1350D02*
Y-1250D01*
X5250Y-1700D02*
X5350D01*
X5300Y-1750D02*
Y-1650D01*
X4850Y-1300D02*
X4950D01*
X4900Y-1350D02*
Y-1250D01*
X16600Y-1200D02*
X16700D01*
X16650Y-1250D02*
Y-1150D01*
X16600Y-750D02*
X16700D01*
X16650Y-800D02*
Y-700D01*
X16600Y-300D02*
X16700D01*
X16650Y-350D02*
Y-250D01*
X16100Y-1200D02*
X16200D01*
X16150Y-1250D02*
Y-1150D01*
X16100Y-750D02*
X16200D01*
X16150Y-800D02*
Y-700D01*
X16100Y-300D02*
X16200D01*
X16150Y-350D02*
Y-250D01*
X15600Y-1200D02*
X15700D01*
X15650Y-1250D02*
Y-1150D01*
X15600Y-750D02*
X15700D01*
X15650Y-800D02*
Y-700D01*
X15600Y-300D02*
X15700D01*
X15650Y-350D02*
Y-250D01*
X7100Y800D02*
X7200D01*
X7150Y750D02*
Y850D01*
X7050Y1150D02*
X7150D01*
X7100Y1100D02*
Y1200D01*
X7400Y-50D02*
X7500D01*
X7450Y-100D02*
Y-0D01*
X8850D02*
X8950D01*
X8900Y-50D02*
Y50D01*
X8400Y-0D02*
X8500D01*
X8450Y-50D02*
Y50D01*
X8700Y-550D02*
X8800D01*
X8750Y-600D02*
Y-500D01*
X8250Y-550D02*
X8350D01*
X8300Y-600D02*
Y-500D01*
Y-1700D02*
X8400D01*
X8350Y-1750D02*
Y-1650D01*
X8750Y-1400D02*
X8850D01*
X8800Y-1450D02*
Y-1350D01*
X8300Y-1400D02*
X8400D01*
X8350Y-1450D02*
Y-1350D01*
X8620Y-3130D02*
X8720D01*
X8670Y-3180D02*
Y-3080D01*
X16400Y-3230D02*
X16500D01*
X16450Y-3280D02*
Y-3180D01*
X11780Y-1730D02*
X11880D01*
X11830Y-1780D02*
Y-1680D01*
X12320Y-2080D02*
X12420D01*
X12370Y-2130D02*
Y-2030D01*
X15300Y2330D02*
X15400D01*
X15350Y2280D02*
Y2380D01*
X15590Y2500D02*
X15690D01*
X15640Y2450D02*
Y2550D01*
X14620Y1550D02*
X14720D01*
X14670Y1500D02*
Y1600D01*
X13320Y2740D02*
X13420D01*
X13370Y2690D02*
Y2790D01*
X11500Y-800D02*
X11600D01*
X11550Y-850D02*
Y-750D01*
X4740Y910D02*
X4840D01*
X4790Y860D02*
Y960D01*
X2415Y-295D02*
X2515D01*
X2465Y-345D02*
Y-245D01*
X2500Y210D02*
X2600D01*
X2550Y160D02*
Y260D01*
X5050Y-150D02*
X5150D01*
X5100Y-200D02*
Y-100D01*
X4740Y-140D02*
X4840D01*
X4790Y-190D02*
Y-90D01*
M02*
