M48
;Layer_Color=9474304
;FILE_FORMAT=2:4
INCH,TZ
;TYPE=PLATED
T1F00S00C0.0080
T2F00S00C0.0100
T3F00S00C0.0120
T5F00S00C0.0256
T6F00S00C0.0320
T7F00S00C0.0787
%
T01
X4250Y-5849
X4216Y-5034
X4801Y-5209
X16900Y-5398
T02
X2465Y-295
X2550Y210
X3800Y1250
X4790Y910
X5650Y1100
X6100Y100
X6600Y-50
Y-500
X7450Y-50
X8450Y-0
X8900
X8750Y-550
X8300
X8350Y-1400
Y-1700
X8800Y-1400
X9200Y-2820
X9500Y-2840
X9970Y-2660
X10450Y-2350
X10790Y-2340
X11140Y-2200
X11830Y-1730
X12370Y-2080
X13090Y-2500
X13640Y-2450
X14240Y-2340
X14314Y-1636
Y-1242
X14553Y-1439
Y-1833
Y-1045
Y-455
X14314Y-258
X13770Y-720
X13280Y-770
X12510Y-750
X11950
X11550Y-800
X11290Y70
X14100Y620
X14380Y910
X14720Y630
X15156Y254
X15500Y950
X15650Y-300
Y-750
Y-1200
X16150
Y-750
Y-300
X16650
Y-750
Y-1200
X17747Y-848
X17986Y-1439
X18800Y-1400
Y-1700
Y-2000
Y-2300
X19100
X19400
X18800Y-1100
Y-800
Y-500
Y-200
Y100
Y400
Y700
X18700Y1400
X18320Y-180
X17520Y-2860
X16839Y-2549
X16450Y-3230
X17170Y-3930
X17190Y-4553
X15140Y-2480
X13230Y-1680
X10210Y-4030
X9290Y-3980
X9300Y-3710
X8560Y-4020
X8670Y-3130
X6570Y-2420
X6440Y-2140
X5300Y-1700
X4900
Y-1300
X5300
X5100Y-150
X4790Y-140
X7150Y800
X7100Y1150
X19700Y-2300
X20000
X20300
X20200Y2300
X19900
X20500
X19600
X19300
X19000
X18700
Y2000
Y1700
X17100Y1990
X15640Y2500
X15350Y2330
X14560Y2080
X14670Y1550
X13370Y2740
X13010Y3160
X12640Y3190
X12600Y2450
X12200
X11800
X11550Y2700
X11170Y2270
X10360Y2280
Y2670
X10190Y2980
X11560Y4030
X12170
X6060Y4000
X5570Y3630
X4410Y3030
X4290Y2080
X6670Y2180
X6510Y1800
X3800Y1750
T03
X4440Y-6940
X17538Y-7520
T05
X2436Y-1138
Y1138
T06
X1900Y-3600
X2900
X3900
X4900
X5900
X6900
X7900
X8900
X9900
X10900
X11900
X12900
X13900
X14900
X15900
X16900
X17900
X18900
Y3600
X17900
X16900
X15900
X14900
X13900
X12900
X11900
X10900
X9900
X8900
X7900
T07
X790Y-9930
X19960Y-9910
X20050Y3550
X750
M30
