G04*
G04 #@! TF.GenerationSoftware,Altium Limited,Altium Designer,19.0.4 (130)*
G04*
G04 Layer_Color=255*
%FSLAX24Y24*%
%MOIN*%
G70*
G01*
G75*
%ADD62C,0.0500*%
%ADD63C,0.1181*%
%ADD64O,0.0827X0.0394*%
%ADD65O,0.0630X0.0394*%
%ADD66C,0.0256*%
%ADD71R,0.0197X0.0197*%
D62*
X6900Y-3600D02*
D03*
X10900Y3600D02*
D03*
X9900D02*
D03*
X15900D02*
D03*
X14900D02*
D03*
X16900D02*
D03*
X18900D02*
D03*
X17900D02*
D03*
X13900D02*
D03*
X11900D02*
D03*
X12900D02*
D03*
X7900D02*
D03*
X8900D02*
D03*
X10900Y-3600D02*
D03*
X9900D02*
D03*
X15900D02*
D03*
X14900D02*
D03*
X16900D02*
D03*
X18900D02*
D03*
X17900D02*
D03*
X13900D02*
D03*
X11900D02*
D03*
X12900D02*
D03*
X7900D02*
D03*
X8900D02*
D03*
X5900D02*
D03*
X4900D02*
D03*
X2900D02*
D03*
X3900D02*
D03*
X1900D02*
D03*
D63*
X750Y3550D02*
D03*
X790Y-9930D02*
D03*
X19960Y-9910D02*
D03*
X20050Y3550D02*
D03*
D64*
X2633Y1703D02*
D03*
Y-1703D02*
D03*
D65*
X1058Y1703D02*
D03*
Y-1703D02*
D03*
D66*
X2436Y-1138D02*
D03*
Y1138D02*
D03*
D71*
X15380Y1550D02*
D03*
X15720D02*
D03*
X15380Y2000D02*
D03*
X15720D02*
D03*
M02*
