G04*
G04 #@! TF.GenerationSoftware,Altium Limited,Altium Designer,19.0.4 (130)*
G04*
G04 Layer_Color=255*
%FSLAX24Y24*%
%MOIN*%
G70*
G01*
G75*
%ADD17R,0.0256X0.0315*%
%ADD18R,0.0197X0.0315*%
%ADD19R,0.0472X0.0787*%
G04:AMPARAMS|DCode=20|XSize=20mil|YSize=20mil|CornerRadius=5mil|HoleSize=0mil|Usage=FLASHONLY|Rotation=270.000|XOffset=0mil|YOffset=0mil|HoleType=Round|Shape=RoundedRectangle|*
%AMROUNDEDRECTD20*
21,1,0.0200,0.0100,0,0,270.0*
21,1,0.0100,0.0200,0,0,270.0*
1,1,0.0100,-0.0050,-0.0050*
1,1,0.0100,-0.0050,0.0050*
1,1,0.0100,0.0050,0.0050*
1,1,0.0100,0.0050,-0.0050*
%
%ADD20ROUNDEDRECTD20*%
G04:AMPARAMS|DCode=21|XSize=20mil|YSize=20mil|CornerRadius=5mil|HoleSize=0mil|Usage=FLASHONLY|Rotation=180.000|XOffset=0mil|YOffset=0mil|HoleType=Round|Shape=RoundedRectangle|*
%AMROUNDEDRECTD21*
21,1,0.0200,0.0100,0,0,180.0*
21,1,0.0100,0.0200,0,0,180.0*
1,1,0.0100,-0.0050,0.0050*
1,1,0.0100,0.0050,0.0050*
1,1,0.0100,0.0050,-0.0050*
1,1,0.0100,-0.0050,-0.0050*
%
%ADD21ROUNDEDRECTD21*%
G04:AMPARAMS|DCode=22|XSize=160mil|YSize=160mil|CornerRadius=16mil|HoleSize=0mil|Usage=FLASHONLY|Rotation=270.000|XOffset=0mil|YOffset=0mil|HoleType=Round|Shape=RoundedRectangle|*
%AMROUNDEDRECTD22*
21,1,0.1600,0.1280,0,0,270.0*
21,1,0.1280,0.1600,0,0,270.0*
1,1,0.0320,-0.0640,-0.0640*
1,1,0.0320,-0.0640,0.0640*
1,1,0.0320,0.0640,0.0640*
1,1,0.0320,0.0640,-0.0640*
%
%ADD22ROUNDEDRECTD22*%
G04:AMPARAMS|DCode=23|XSize=26.6mil|YSize=9.8mil|CornerRadius=2.5mil|HoleSize=0mil|Usage=FLASHONLY|Rotation=270.000|XOffset=0mil|YOffset=0mil|HoleType=Round|Shape=RoundedRectangle|*
%AMROUNDEDRECTD23*
21,1,0.0266,0.0049,0,0,270.0*
21,1,0.0217,0.0098,0,0,270.0*
1,1,0.0049,-0.0025,-0.0108*
1,1,0.0049,-0.0025,0.0108*
1,1,0.0049,0.0025,0.0108*
1,1,0.0049,0.0025,-0.0108*
%
%ADD23ROUNDEDRECTD23*%
G04:AMPARAMS|DCode=24|XSize=26.6mil|YSize=9.8mil|CornerRadius=2.5mil|HoleSize=0mil|Usage=FLASHONLY|Rotation=0.000|XOffset=0mil|YOffset=0mil|HoleType=Round|Shape=RoundedRectangle|*
%AMROUNDEDRECTD24*
21,1,0.0266,0.0049,0,0,0.0*
21,1,0.0217,0.0098,0,0,0.0*
1,1,0.0049,0.0108,-0.0025*
1,1,0.0049,-0.0108,-0.0025*
1,1,0.0049,-0.0108,0.0025*
1,1,0.0049,0.0108,0.0025*
%
%ADD24ROUNDEDRECTD24*%
G04:AMPARAMS|DCode=25|XSize=37.4mil|YSize=39.4mil|CornerRadius=9.4mil|HoleSize=0mil|Usage=FLASHONLY|Rotation=0.000|XOffset=0mil|YOffset=0mil|HoleType=Round|Shape=RoundedRectangle|*
%AMROUNDEDRECTD25*
21,1,0.0374,0.0207,0,0,0.0*
21,1,0.0187,0.0394,0,0,0.0*
1,1,0.0187,0.0094,-0.0103*
1,1,0.0187,-0.0094,-0.0103*
1,1,0.0187,-0.0094,0.0103*
1,1,0.0187,0.0094,0.0103*
%
%ADD25ROUNDEDRECTD25*%
G04:AMPARAMS|DCode=26|XSize=15.7mil|YSize=137.8mil|CornerRadius=3.9mil|HoleSize=0mil|Usage=FLASHONLY|Rotation=270.000|XOffset=0mil|YOffset=0mil|HoleType=Round|Shape=RoundedRectangle|*
%AMROUNDEDRECTD26*
21,1,0.0157,0.1299,0,0,270.0*
21,1,0.0079,0.1378,0,0,270.0*
1,1,0.0079,-0.0650,-0.0039*
1,1,0.0079,-0.0650,0.0039*
1,1,0.0079,0.0650,0.0039*
1,1,0.0079,0.0650,-0.0039*
%
%ADD26ROUNDEDRECTD26*%
%ADD27R,0.1102X0.1063*%
G04:AMPARAMS|DCode=28|XSize=12mil|YSize=38mil|CornerRadius=3mil|HoleSize=0mil|Usage=FLASHONLY|Rotation=90.000|XOffset=0mil|YOffset=0mil|HoleType=Round|Shape=RoundedRectangle|*
%AMROUNDEDRECTD28*
21,1,0.0120,0.0320,0,0,90.0*
21,1,0.0060,0.0380,0,0,90.0*
1,1,0.0060,0.0160,0.0030*
1,1,0.0060,0.0160,-0.0030*
1,1,0.0060,-0.0160,-0.0030*
1,1,0.0060,-0.0160,0.0030*
%
%ADD28ROUNDEDRECTD28*%
G04:AMPARAMS|DCode=29|XSize=12mil|YSize=38mil|CornerRadius=3mil|HoleSize=0mil|Usage=FLASHONLY|Rotation=180.000|XOffset=0mil|YOffset=0mil|HoleType=Round|Shape=RoundedRectangle|*
%AMROUNDEDRECTD29*
21,1,0.0120,0.0320,0,0,180.0*
21,1,0.0060,0.0380,0,0,180.0*
1,1,0.0060,-0.0030,0.0160*
1,1,0.0060,0.0030,0.0160*
1,1,0.0060,0.0030,-0.0160*
1,1,0.0060,-0.0030,-0.0160*
%
%ADD29ROUNDEDRECTD29*%
G04:AMPARAMS|DCode=30|XSize=23.6mil|YSize=35mil|CornerRadius=5.9mil|HoleSize=0mil|Usage=FLASHONLY|Rotation=90.000|XOffset=0mil|YOffset=0mil|HoleType=Round|Shape=RoundedRectangle|*
%AMROUNDEDRECTD30*
21,1,0.0236,0.0232,0,0,90.0*
21,1,0.0118,0.0350,0,0,90.0*
1,1,0.0118,0.0116,0.0059*
1,1,0.0118,0.0116,-0.0059*
1,1,0.0118,-0.0116,-0.0059*
1,1,0.0118,-0.0116,0.0059*
%
%ADD30ROUNDEDRECTD30*%
G04:AMPARAMS|DCode=31|XSize=31.5mil|YSize=70.9mil|CornerRadius=7.9mil|HoleSize=0mil|Usage=FLASHONLY|Rotation=270.000|XOffset=0mil|YOffset=0mil|HoleType=Round|Shape=RoundedRectangle|*
%AMROUNDEDRECTD31*
21,1,0.0315,0.0551,0,0,270.0*
21,1,0.0157,0.0709,0,0,270.0*
1,1,0.0157,-0.0276,-0.0079*
1,1,0.0157,-0.0276,0.0079*
1,1,0.0157,0.0276,0.0079*
1,1,0.0157,0.0276,-0.0079*
%
%ADD31ROUNDEDRECTD31*%
G04:AMPARAMS|DCode=32|XSize=59.1mil|YSize=11.8mil|CornerRadius=3mil|HoleSize=0mil|Usage=FLASHONLY|Rotation=0.000|XOffset=0mil|YOffset=0mil|HoleType=Round|Shape=RoundedRectangle|*
%AMROUNDEDRECTD32*
21,1,0.0591,0.0059,0,0,0.0*
21,1,0.0531,0.0118,0,0,0.0*
1,1,0.0059,0.0266,-0.0030*
1,1,0.0059,-0.0266,-0.0030*
1,1,0.0059,-0.0266,0.0030*
1,1,0.0059,0.0266,0.0030*
%
%ADD32ROUNDEDRECTD32*%
G04:AMPARAMS|DCode=33|XSize=50mil|YSize=30mil|CornerRadius=7.5mil|HoleSize=0mil|Usage=FLASHONLY|Rotation=180.000|XOffset=0mil|YOffset=0mil|HoleType=Round|Shape=RoundedRectangle|*
%AMROUNDEDRECTD33*
21,1,0.0500,0.0150,0,0,180.0*
21,1,0.0350,0.0300,0,0,180.0*
1,1,0.0150,-0.0175,0.0075*
1,1,0.0150,0.0175,0.0075*
1,1,0.0150,0.0175,-0.0075*
1,1,0.0150,-0.0175,-0.0075*
%
%ADD33ROUNDEDRECTD33*%
%ADD62C,0.0500*%
%ADD63C,0.1181*%
%ADD64O,0.0827X0.0394*%
%ADD65O,0.0630X0.0394*%
%ADD66C,0.0256*%
D17*
X3825Y-8879D02*
D03*
Y-8170D02*
D03*
X4770Y-8879D02*
D03*
Y-8170D02*
D03*
X4880Y-5480D02*
D03*
Y-6189D02*
D03*
X3935Y-5480D02*
D03*
Y-6189D02*
D03*
X17852Y-6216D02*
D03*
Y-6924D02*
D03*
X16908Y-6216D02*
D03*
Y-6924D02*
D03*
X17942Y-8016D02*
D03*
Y-8724D02*
D03*
X16998Y-8016D02*
D03*
Y-8724D02*
D03*
D18*
X4140Y-8879D02*
D03*
Y-8170D02*
D03*
X4455Y-8879D02*
D03*
Y-8170D02*
D03*
X4565Y-5480D02*
D03*
Y-6189D02*
D03*
X4250Y-5480D02*
D03*
Y-6189D02*
D03*
X17538Y-6216D02*
D03*
Y-6924D02*
D03*
X17223Y-6216D02*
D03*
Y-6924D02*
D03*
X17628Y-8016D02*
D03*
Y-8724D02*
D03*
X17313Y-8016D02*
D03*
Y-8724D02*
D03*
D19*
X9650Y-5608D02*
D03*
X8650D02*
D03*
X7650D02*
D03*
Y-9112D02*
D03*
X8650D02*
D03*
X9650D02*
D03*
X6650Y-5608D02*
D03*
Y-9112D02*
D03*
X15090Y-5488D02*
D03*
X14090D02*
D03*
X13090D02*
D03*
Y-8992D02*
D03*
X14090D02*
D03*
X15090D02*
D03*
X12090Y-5488D02*
D03*
Y-8992D02*
D03*
D20*
X13800Y-2150D02*
D03*
X13400D02*
D03*
X12050Y-1750D02*
D03*
X12450D02*
D03*
Y-2150D02*
D03*
X12050D02*
D03*
X5950Y500D02*
D03*
X6350D02*
D03*
X13400Y-1700D02*
D03*
X13800D02*
D03*
X15280Y1539D02*
D03*
X15680D02*
D03*
Y1189D02*
D03*
X15280D02*
D03*
X4150Y-250D02*
D03*
X3750D02*
D03*
X4150Y150D02*
D03*
X3750D02*
D03*
X7450Y800D02*
D03*
X7850D02*
D03*
X5500Y2040D02*
D03*
X5900D02*
D03*
X5100D02*
D03*
X4700D02*
D03*
X5500Y2440D02*
D03*
X5900D02*
D03*
X5100D02*
D03*
X4700D02*
D03*
X7450Y-950D02*
D03*
X7850D02*
D03*
X7450Y-1300D02*
D03*
X7850D02*
D03*
X7450Y-600D02*
D03*
X7850D02*
D03*
X7450Y100D02*
D03*
X7850D02*
D03*
X7450Y450D02*
D03*
X7850D02*
D03*
X7450Y-250D02*
D03*
X7850D02*
D03*
X7450Y1200D02*
D03*
X7850D02*
D03*
D21*
X6000Y1000D02*
D03*
Y1400D02*
D03*
X6450D02*
D03*
Y1000D02*
D03*
X3700Y-1200D02*
D03*
Y-800D02*
D03*
X12900Y-1800D02*
D03*
Y-2200D02*
D03*
X6600Y-1300D02*
D03*
Y-900D02*
D03*
X6300Y2050D02*
D03*
Y2450D02*
D03*
D22*
X16150Y-750D02*
D03*
D23*
X17233Y574D02*
D03*
X17036D02*
D03*
X16839D02*
D03*
X16642D02*
D03*
X16445D02*
D03*
X16248D02*
D03*
X16052D02*
D03*
X15855D02*
D03*
X15658D02*
D03*
X15461D02*
D03*
X15264D02*
D03*
X15067D02*
D03*
Y-2074D02*
D03*
X15264D02*
D03*
X15461D02*
D03*
X15658D02*
D03*
X15855D02*
D03*
X16052D02*
D03*
X16248D02*
D03*
X16445D02*
D03*
X16642D02*
D03*
X16839D02*
D03*
X17036D02*
D03*
X17233D02*
D03*
D24*
X14826Y333D02*
D03*
Y136D02*
D03*
Y-61D02*
D03*
Y-258D02*
D03*
Y-455D02*
D03*
Y-652D02*
D03*
Y-848D02*
D03*
Y-1045D02*
D03*
Y-1242D02*
D03*
Y-1439D02*
D03*
Y-1636D02*
D03*
Y-1833D02*
D03*
X17474D02*
D03*
Y-1636D02*
D03*
Y-1439D02*
D03*
Y-1242D02*
D03*
Y-1045D02*
D03*
Y-848D02*
D03*
Y-652D02*
D03*
Y-455D02*
D03*
Y-258D02*
D03*
Y-61D02*
D03*
Y136D02*
D03*
Y333D02*
D03*
D25*
X12900Y-357D02*
D03*
X13274Y-1243D02*
D03*
X12526D02*
D03*
X11550Y-357D02*
D03*
X11924Y-1243D02*
D03*
X11176D02*
D03*
D26*
X9900Y827D02*
D03*
Y0D02*
D03*
Y-827D02*
D03*
Y-1654D02*
D03*
Y1654D02*
D03*
Y-1102D02*
D03*
Y-1378D02*
D03*
Y-276D02*
D03*
Y-551D02*
D03*
Y551D02*
D03*
Y276D02*
D03*
Y1378D02*
D03*
Y1102D02*
D03*
D27*
X5100Y-1500D02*
D03*
D28*
X6015Y-909D02*
D03*
Y-1106D02*
D03*
Y-1303D02*
D03*
Y-1500D02*
D03*
Y-1697D02*
D03*
Y-1894D02*
D03*
Y-2091D02*
D03*
X4185D02*
D03*
Y-1894D02*
D03*
Y-1697D02*
D03*
Y-1500D02*
D03*
Y-1303D02*
D03*
Y-1106D02*
D03*
Y-909D02*
D03*
D29*
X5691Y-2415D02*
D03*
X5494D02*
D03*
X5297D02*
D03*
X5100D02*
D03*
X4903D02*
D03*
X4706D02*
D03*
X4509D02*
D03*
Y-585D02*
D03*
X4706D02*
D03*
X4903D02*
D03*
X5100D02*
D03*
X5297D02*
D03*
X5494D02*
D03*
X5691D02*
D03*
D30*
X4259Y726D02*
D03*
Y1100D02*
D03*
Y1474D02*
D03*
X5399D02*
D03*
Y726D02*
D03*
D31*
X19850Y-1009D02*
D03*
Y1000D02*
D03*
D32*
X3042Y1319D02*
D03*
Y1201D02*
D03*
Y1004D02*
D03*
Y886D02*
D03*
Y689D02*
D03*
Y492D02*
D03*
Y295D02*
D03*
Y98D02*
D03*
Y-98D02*
D03*
Y-295D02*
D03*
Y-492D02*
D03*
Y-689D02*
D03*
Y-886D02*
D03*
Y-1004D02*
D03*
Y-1201D02*
D03*
Y-1319D02*
D03*
D33*
X4850Y3280D02*
D03*
X6550D02*
D03*
X4850Y3920D02*
D03*
X6550D02*
D03*
X2250Y3280D02*
D03*
X3950D02*
D03*
X2250Y3920D02*
D03*
X3950D02*
D03*
D62*
X6900Y-3600D02*
D03*
X10900Y3600D02*
D03*
X9900D02*
D03*
X15900D02*
D03*
X14900D02*
D03*
X16900D02*
D03*
X18900D02*
D03*
X17900D02*
D03*
X13900D02*
D03*
X11900D02*
D03*
X12900D02*
D03*
X7900D02*
D03*
X8900D02*
D03*
X10900Y-3600D02*
D03*
X9900D02*
D03*
X15900D02*
D03*
X14900D02*
D03*
X16900D02*
D03*
X18900D02*
D03*
X17900D02*
D03*
X13900D02*
D03*
X11900D02*
D03*
X12900D02*
D03*
X7900D02*
D03*
X8900D02*
D03*
X5900D02*
D03*
X4900D02*
D03*
X2900D02*
D03*
X3900D02*
D03*
X1900D02*
D03*
D63*
X750Y3550D02*
D03*
X790Y-9930D02*
D03*
X19960Y-9910D02*
D03*
X20050Y3550D02*
D03*
D64*
X2633Y1703D02*
D03*
Y-1703D02*
D03*
D65*
X1058Y1703D02*
D03*
Y-1703D02*
D03*
D66*
X2436Y-1138D02*
D03*
Y1138D02*
D03*
M02*
